<?xml version="1.0" standalone="no"?>
<!DOCTYPE svg PUBLIC "-//W3C//DTD SVG 20010904//EN"
 "http://www.w3.org/TR/2001/REC-SVG-20010904/DTD/svg10.dtd">
<svg version="1.0" xmlns="http://www.w3.org/2000/svg"
 width="260.000000pt" height="260.000000pt" viewBox="0 0 260.000000 260.000000"
 preserveAspectRatio="xMidYMid meet">
<metadata>
Created by potrace 1.11, written by Peter Selinger 2001-2013
</metadata>
<g transform="translate(0.000000,260.000000) scale(0.100000,-0.100000)"
fill="#000000" stroke="none">
<path d="M1295 2480 c-3 -5 -1 -10 4 -10 6 0 11 5 11 10 0 6 -2 10 -4 10 -3 0
-8 -4 -11 -10z"/>
<path d="M1199 2468 c-7 -23 -4 -35 7 -35 9 0 11 4 4 12 -5 7 -7 15 -3 18 3 4
3 7 0 7 -4 0 -7 -1 -8 -2z"/>
<path d="M1356 2462 c-3 -5 1 -9 9 -9 8 0 12 4 9 9 -3 4 -7 8 -9 8 -2 0 -6 -4
-9 -8z"/>
<path d="M1115 2449 c-4 -6 -14 -8 -24 -4 -13 5 -14 4 -3 -6 10 -11 15 -10 29
4 10 9 14 17 11 17 -4 0 -10 -5 -13 -11z"/>
<path d="M1254 2436 c4 -13 2 -17 -8 -13 -7 3 -23 -1 -34 -9 -17 -12 -21 -12
-25 0 -4 9 -14 12 -28 9 -17 -5 -20 -3 -14 7 5 9 4 11 -4 6 -17 -11 -2 -29 20
-23 11 3 19 2 19 -3 0 -4 -9 -10 -21 -13 -16 -4 -19 -11 -14 -29 6 -22 5 -22
-9 -5 -8 11 -12 25 -9 33 3 8 0 14 -7 14 -6 0 -8 -5 -4 -12 5 -8 1 -9 -12 -5
-18 7 -18 6 -1 -7 25 -20 21 -31 -6 -13 -21 14 -24 13 -36 -4 -6 -11 -16 -17
-22 -13 -6 3 -4 11 7 18 9 7 14 19 11 27 -4 10 -6 9 -6 -4 -1 -10 -5 -15 -11
-12 -9 6 -15 -8 -11 -29 1 -5 -6 -5 -16 -1 -10 4 -28 9 -40 10 -12 2 -26 6
-32 9 -11 7 -9 -13 2 -31 5 -7 4 -13 0 -13 -5 0 -15 6 -22 13 -9 7 -11 7 -8 1
11 -19 -22 -25 -32 -6 -6 9 -11 12 -11 5 0 -6 5 -15 10 -18 6 -4 8 -10 5 -15
-3 -5 -15 0 -25 10 -11 11 -26 20 -32 19 -10 0 -10 -2 0 -6 6 -2 10 -9 7 -14
-4 -5 2 -6 12 -2 16 6 16 5 4 -10 -11 -13 -17 -15 -28 -6 -7 7 -16 9 -20 5 -3
-3 -1 -6 6 -6 7 0 9 -5 6 -10 -4 -6 -11 -7 -17 -4 -6 4 -17 -2 -25 -12 -8 -10
-17 -19 -21 -19 -4 0 -6 -6 -5 -13 0 -8 -5 -11 -13 -8 -32 13 -48 16 -26 5 12
-7 22 -16 22 -21 0 -5 -4 -7 -9 -4 -5 3 -12 -1 -15 -10 -4 -11 -10 -13 -19 -6
-18 14 -50 11 -67 -7 -13 -13 -13 -14 3 -8 13 5 17 3 14 -5 -5 -13 -9 -14 -42
-3 -17 6 -17 5 2 -7 17 -10 19 -17 12 -31 -6 -10 -15 -14 -22 -10 -7 4 -6 -1
2 -10 12 -15 12 -17 -2 -11 -9 3 -17 13 -19 22 -3 13 -5 12 -10 -6 -3 -12 -3
-20 2 -17 4 3 13 -9 20 -25 7 -17 15 -29 17 -26 3 2 0 14 -6 25 -10 17 -9 20
4 15 8 -4 15 -1 15 5 0 23 2 26 23 38 12 7 16 12 9 13 -7 0 -10 5 -7 11 5 7
16 2 31 -12 13 -12 24 -17 24 -10 0 6 -7 14 -15 17 -8 4 -12 11 -8 17 4 6 10
5 17 -4 9 -13 13 -12 29 3 10 11 12 18 5 18 -6 0 -3 6 8 14 10 8 23 11 29 6 6
-5 20 0 33 10 12 10 19 20 15 23 -5 2 -3 2 4 1 7 -2 15 1 18 7 4 5 11 7 16 4
5 -4 9 -1 9 4 0 6 5 10 12 8 7 -1 12 3 13 10 0 20 15 27 15 7 0 -16 2 -17 10
-4 8 12 10 12 10 1 0 -8 3 -12 6 -9 3 4 0 16 -6 28 -10 18 -9 21 2 18 13 -5
20 -70 10 -96 -8 -22 -23 9 -15 33 5 19 4 19 -13 4 -11 -9 -25 -14 -32 -12 -7
3 -12 1 -10 -4 1 -4 -2 -19 -6 -33 l-9 -25 -8 22 c-5 15 -14 21 -24 17 -8 -3
-12 -10 -9 -15 3 -5 10 -7 15 -4 5 4 9 1 9 -5 0 -6 -7 -10 -16 -8 -10 2 -19
-3 -21 -10 -3 -8 2 -10 14 -6 17 5 17 5 1 -6 -20 -12 -25 -36 -6 -24 7 5 8 3
3 -6 -11 -18 -36 16 -27 38 5 14 3 15 -10 5 -8 -7 -18 -10 -21 -6 -4 3 -7 1
-7 -6 0 -7 -5 -9 -10 -6 -5 3 -10 2 -10 -4 0 -5 3 -11 8 -14 4 -2 1 -2 -6 0
-8 1 -12 -3 -9 -9 2 -7 12 -12 22 -10 14 3 15 1 4 -11 -12 -12 -15 -12 -26 2
-11 15 -12 15 -13 0 0 -9 -8 -20 -17 -23 -15 -6 -15 -8 -3 -16 11 -7 11 -10 2
-10 -7 0 -15 7 -18 15 -4 8 -10 15 -16 15 -5 0 -6 -4 -3 -10 4 -6 -1 -7 -12
-3 -10 3 -15 2 -10 -2 4 -5 0 -19 -8 -32 -9 -13 -11 -23 -5 -23 5 0 10 -5 10
-10 0 -6 -11 -3 -24 5 -14 9 -27 12 -30 7 -3 -5 4 -12 15 -15 12 -3 18 -10 14
-16 -3 -6 1 -11 9 -11 8 0 18 -4 21 -10 4 -6 -2 -7 -17 -1 -13 5 -22 14 -20
20 1 6 -5 11 -13 11 -19 0 -19 -5 1 -36 9 -13 14 -27 11 -30 -3 -3 -8 4 -12
15 -4 12 -12 18 -20 14 -8 -3 -12 -9 -9 -14 3 -5 1 -9 -4 -9 -5 0 -14 10 -20
23 l-11 22 3 -24 c1 -13 11 -30 22 -38 18 -14 18 -15 -3 -8 -14 4 -23 2 -23
-4 0 -10 14 -15 33 -12 5 1 6 -3 2 -9 -11 -19 -47 9 -40 31 4 11 3 19 -2 18
-19 -3 -33 2 -33 12 0 5 4 8 9 4 16 -9 25 16 10 27 -11 7 -9 8 6 6 14 -2 20 3
20 17 0 14 6 20 22 19 13 -1 20 3 16 9 -4 6 -1 7 7 2 9 -6 11 -4 5 6 -6 11 -5
12 6 2 7 -7 17 -13 23 -13 5 0 1 6 -10 14 -12 9 -23 11 -30 5 -11 -9 -24 -3
-24 11 0 9 32 6 48 -3 8 -6 10 -3 6 8 -4 10 -14 15 -25 12 -11 -3 -23 2 -29
11 -8 14 -10 14 -9 2 3 -29 -1 -41 -11 -35 -6 4 -8 10 -6 14 3 4 -6 7 -19 7
-13 0 -21 -4 -19 -8 3 -5 9 -6 13 -3 5 2 16 -4 25 -14 11 -13 14 -21 7 -26 -6
-3 -11 -1 -11 5 0 6 -4 8 -10 5 -5 -3 -10 -11 -10 -16 0 -6 5 -7 10 -4 6 3 10
2 10 -3 0 -6 -7 -13 -16 -16 -22 -8 -24 -8 -20 7 1 6 1 9 -1 4 -3 -4 -10 -4
-16 0 -8 4 -7 1 1 -9 10 -13 10 -17 -2 -21 -9 -4 -17 1 -19 11 -4 15 -5 15 -6
1 0 -9 7 -23 16 -30 9 -8 14 -9 10 -3 -4 7 0 15 9 18 23 9 23 8 11 -18 -7 -13
-15 -22 -19 -20 -3 2 -9 0 -13 -6 -3 -5 -11 -10 -17 -10 -7 0 -6 5 1 14 15 18
-5 34 -22 17 -9 -9 -7 -11 8 -6 17 6 16 3 -5 -16 -17 -14 -21 -23 -12 -26 19
-7 4 -23 -16 -17 -12 4 -14 3 -4 -3 10 -8 10 -12 -3 -23 -13 -10 -15 -10 -15
5 0 10 -3 16 -6 12 -4 -3 -4 -14 0 -23 5 -13 9 -14 21 -4 18 15 20 -1 3 -18
-8 -8 -15 -9 -25 0 -11 9 -12 7 -7 -7 5 -12 4 -16 -3 -12 -17 11 -23 -20 -7
-33 16 -14 19 -50 4 -50 -5 0 -7 6 -4 13 3 8 -2 20 -11 27 -10 8 -15 9 -15 1
0 -6 5 -11 10 -11 6 0 10 -5 10 -10 0 -6 -6 -10 -13 -9 -6 1 -19 1 -27 0 -13
-1 -13 -3 -1 -10 8 -5 20 -7 26 -5 8 3 11 -4 10 -20 -2 -13 3 -35 10 -49 8
-16 9 -29 3 -35 -6 -6 -6 -12 0 -16 6 -3 13 2 17 13 4 12 15 18 33 18 15 0 21
-2 15 -4 -7 -3 -15 -3 -18 -1 -2 2 -12 -7 -20 -20 -9 -12 -21 -19 -27 -16 -7
5 -9 1 -5 -9 4 -11 2 -14 -8 -11 -9 4 -13 -1 -11 -13 2 -10 11 -19 22 -21 12
-2 15 0 8 5 -7 5 -3 16 14 33 l24 25 -17 -27 c-14 -22 -14 -28 -4 -28 8 -1 2
-8 -14 -16 -15 -8 -32 -12 -37 -9 -5 3 -20 1 -32 -6 -13 -6 -20 -8 -15 -4 4 5
0 19 -8 32 -20 30 -3 30 19 1 9 -13 14 -17 10 -10 -3 7 1 21 9 30 8 9 13 25
12 35 -2 11 1 15 8 10 7 -3 9 -3 5 2 -4 4 -3 14 2 20 10 12 1 13 -44 6 -5 0
-3 -8 4 -16 8 -10 9 -15 2 -15 -6 0 -16 8 -21 18 -10 16 -10 16 -11 0 0 -10 5
-18 11 -18 5 0 7 -4 4 -10 -3 -6 1 -7 9 -4 10 4 16 1 16 -9 0 -11 -7 -14 -24
-11 -26 4 -44 -10 -26 -21 5 -3 10 -11 10 -16 0 -6 -6 -7 -12 -3 -10 6 -10 4
0 -8 7 -8 10 -22 6 -31 -3 -8 0 -18 6 -22 12 -8 -5 -35 -22 -35 -7 0 -7 5 0
13 7 8 8 18 1 27 -8 12 -9 11 -7 -4 2 -10 -3 -21 -11 -24 -9 -3 -11 0 -6 8 6
9 4 11 -5 5 -10 -6 -10 -11 3 -20 9 -7 14 -15 10 -19 -4 -4 1 -4 12 0 19 8 19
7 2 -19 -17 -26 -13 -32 15 -28 13 1 4 -39 -10 -44 -9 -3 -12 0 -9 9 5 13 -10
25 -39 31 -6 2 -11 -3 -11 -11 0 -10 4 -11 14 -3 10 9 15 6 22 -12 4 -13 6
-29 4 -35 -2 -7 1 -15 6 -19 6 -3 9 -11 6 -16 -3 -5 0 -6 8 -3 8 3 14 -2 14
-11 0 -9 -6 -14 -14 -11 -8 3 -12 2 -8 -3 3 -5 -1 -11 -7 -14 -10 -3 -11 -9 0
-26 15 -27 15 -31 -2 -31 -20 0 -29 -17 -15 -26 8 -5 9 -3 4 6 -5 8 -3 11 5 8
20 -6 23 -48 4 -48 -9 0 -12 5 -8 12 5 7 3 8 -6 3 -10 -6 -9 -11 6 -22 16 -11
20 -11 29 4 11 20 35 29 35 13 0 -5 3 -9 8 -9 20 3 32 -2 32 -16 0 -8 -5 -15
-11 -15 -5 0 -8 4 -4 9 3 5 0 13 -6 17 -8 5 -9 3 -4 -7 7 -12 6 -12 -9 0 -15
13 -19 13 -27 0 -5 -8 -7 -20 -4 -27 5 -14 -11 -16 -18 -2 -3 6 -4 5 -3 -2 2
-7 -4 -19 -13 -26 -9 -8 -2 -6 17 3 17 8 32 12 32 8 0 -5 5 -1 10 7 7 10 10
11 10 2 0 -7 -11 -18 -25 -24 -21 -9 -23 -13 -11 -20 8 -5 13 -15 10 -23 -4
-8 -10 -13 -14 -10 -7 4 -7 -10 -1 -33 1 -1 10 2 21 8 14 8 20 8 20 0 0 -6 -7
-13 -15 -16 -8 -4 -15 -11 -15 -17 0 -5 9 -2 20 8 22 20 28 8 8 -14 -11 -11
-10 -12 1 -6 11 6 13 4 8 -8 -4 -10 -2 -16 5 -14 6 1 12 -3 15 -9 2 -6 -2 -11
-9 -12 -25 -2 -47 -8 -54 -15 -4 -3 3 -4 15 -2 11 3 30 7 42 10 13 2 19 0 16
-8 -2 -7 -10 -12 -18 -13 -30 -2 -32 -5 -14 -24 14 -15 15 -20 4 -20 -11 0
-11 -2 1 -10 8 -5 20 -10 25 -10 6 0 3 5 -5 10 -8 5 -11 10 -6 10 5 0 1 10
-10 22 -16 17 -16 20 -3 15 9 -3 21 -1 27 5 7 7 10 3 11 -13 1 -44 4 -59 14
-59 5 0 6 8 3 18 -5 14 -3 13 9 -3 10 -12 12 -21 5 -23 -6 -2 -15 -13 -21 -25
-9 -20 -9 -20 4 -5 15 19 32 25 22 8 -3 -5 -1 -10 5 -10 6 0 8 -5 5 -10 -4 -6
-10 -8 -14 -6 -4 3 -8 -4 -8 -15 -2 -18 0 -17 18 5 11 14 25 26 31 26 7 0 7
-4 -1 -13 -6 -8 -8 -17 -4 -20 3 -4 -1 -7 -10 -7 -10 0 -17 -5 -17 -10 0 -6 3
-9 8 -8 11 4 53 -28 45 -35 -3 -4 -12 -2 -20 4 -7 6 -13 8 -13 3 0 -5 -4 -3
-9 4 -7 11 -9 11 -14 -1 -4 -11 0 -15 14 -12 13 3 24 -5 34 -23 14 -26 14 -26
12 -3 -1 13 3 26 9 28 7 2 11 -4 10 -14 0 -12 6 -18 18 -18 11 0 21 -6 24 -14
3 -9 0 -11 -9 -6 -11 6 -12 5 -2 -6 19 -20 16 -33 -5 -18 -15 12 -16 12 -5 -2
7 -9 10 -19 6 -22 -3 -4 -1 -7 5 -7 5 0 12 6 15 13 2 6 8 8 13 4 5 -5 0 -15
-11 -24 -20 -14 -20 -14 0 -11 13 2 21 -4 23 -17 4 -18 3 -18 -14 -5 -17 14
-18 14 -5 -2 7 -10 17 -15 22 -12 13 7 11 44 -2 44 -5 0 -8 4 -4 10 3 5 12 7
20 4 8 -4 12 -11 8 -18 -4 -6 0 -5 10 2 14 12 16 11 14 -7 -1 -15 -6 -20 -16
-16 -9 4 -5 -5 8 -19 19 -20 27 -23 38 -15 16 14 17 -3 1 -19 -9 -9 -9 -12 0
-12 7 0 12 5 12 10 0 6 4 10 10 10 11 0 9 -28 -3 -47 -5 -7 -4 -13 0 -13 5 0
15 11 24 25 l15 26 20 -22 c19 -22 19 -22 -3 -15 -12 4 -24 2 -28 -4 -10 -16
10 -34 27 -24 21 13 40 14 35 1 -2 -7 -10 -12 -18 -12 -17 0 -25 -33 -11 -47
6 -6 8 0 4 18 -3 18 -1 25 6 20 6 -3 14 -1 17 5 4 5 14 8 22 4 14 -5 14 -3 2
11 -11 13 -11 15 2 14 23 -4 39 0 38 7 -4 22 3 30 24 28 36 -4 37 -4 37 -16 0
-5 -5 -7 -12 -3 -8 5 -9 2 -5 -10 4 -10 3 -15 -3 -11 -6 3 -10 2 -10 -4 0 -18
20 -23 26 -6 8 19 44 41 44 25 0 -5 -7 -10 -15 -10 -8 0 -15 -4 -15 -10 0 -17
28 -11 39 8 6 9 11 12 11 5 0 -6 -5 -15 -10 -18 -6 -4 -7 -11 -4 -17 4 -5 15
3 25 19 10 15 19 23 19 16 0 -6 -4 -15 -10 -18 -5 -3 -10 -11 -10 -17 0 -7 6
-6 15 2 9 8 15 8 15 2 0 -6 -6 -12 -12 -15 -7 -2 -10 -7 -7 -11 3 -3 17 3 31
13 19 15 28 17 36 9 7 -7 12 -17 12 -22 0 -6 -7 -3 -14 7 -8 10 -17 14 -20 9
-6 -9 32 -45 52 -50 16 -3 16 15 0 20 -8 3 -6 7 4 10 12 5 15 1 13 -18 -1 -13
5 -29 13 -36 13 -11 14 -9 9 12 -4 14 -4 19 -1 12 5 -10 9 -10 20 -1 11 9 18
9 29 -1 10 -9 15 -9 15 -1 0 6 5 11 11 11 8 0 7 -5 -1 -15 -20 -24 -6 -27 18
-5 22 21 29 16 13 -8 -4 -8 -12 -13 -17 -12 -5 1 -10 -2 -11 -7 -2 -5 6 -9 17
-9 11 0 23 9 26 20 6 17 7 17 15 3 5 -9 16 -14 24 -11 8 4 12 10 9 15 -3 5 2
12 10 15 9 3 13 11 9 17 -4 6 -1 7 7 2 10 -6 10 -10 -2 -19 -8 -6 -14 -19 -12
-29 2 -13 -2 -17 -12 -13 -8 3 -17 0 -20 -8 -3 -7 -11 -13 -19 -13 -8 0 -11 5
-8 11 4 6 -1 5 -10 -3 -12 -9 -21 -10 -29 -4 -7 6 -21 9 -30 8 -12 -2 -15 2
-11 13 4 13 1 12 -11 -3 -10 -11 -14 -13 -10 -5 7 13 6 13 -11 0 -15 -12 -17
-12 -10 -1 6 10 4 12 -5 6 -9 -6 -11 -4 -5 6 8 12 6 12 -8 0 -14 -11 -17 -11
-17 0 0 8 -6 6 -16 -7 -8 -10 -13 -14 -10 -7 4 6 2 14 -3 18 -5 3 -8 14 -6 25
2 11 -1 20 -7 20 -5 0 -7 -7 -4 -16 4 -10 2 -13 -6 -8 -7 5 -8 3 -3 -7 7 -12
6 -12 -7 -1 -13 10 -17 10 -22 -3 -7 -20 3 -47 16 -39 6 4 8 -3 4 -17 -3 -13
-3 -18 0 -11 3 6 10 9 16 6 6 -4 6 1 -1 14 -6 11 -16 22 -23 25 -7 2 -9 8 -5
13 5 5 16 0 25 -11 22 -27 53 -40 45 -19 -8 21 17 14 39 -11 17 -19 18 -19 11
-1 -5 14 -3 17 6 12 7 -5 11 -16 8 -26 -3 -12 0 -17 9 -13 7 2 10 12 7 21 -2
9 9 1 25 -18 25 -28 33 -33 44 -22 10 10 16 8 29 -9 13 -17 18 -19 24 -8 5 8
5 11 0 7 -5 -5 -15 2 -23 13 -13 19 -13 23 3 37 16 16 17 16 11 -5 -7 -23 9
-41 17 -20 3 8 18 13 36 12 38 -2 43 -6 25 -23 -8 -7 -14 -8 -14 -3 0 5 -9 9
-20 8 -11 -1 -20 -5 -20 -10 0 -5 7 -6 15 -3 9 3 18 -1 22 -10 5 -12 8 -12 20
6 17 24 31 25 54 4 16 -14 19 -13 44 13 25 26 26 26 20 6 -4 -14 -2 -23 5 -23
6 0 8 4 5 10 -3 5 0 10 9 10 8 0 17 -6 20 -12 5 -10 7 -10 12 0 5 10 9 10 22
0 13 -11 14 -11 8 1 -6 9 -5 12 5 9 8 -3 13 -12 11 -22 -2 -9 2 -16 8 -16 6 0
9 4 5 9 -3 5 1 16 9 24 13 13 11 14 -17 13 -33 -3 -57 9 -57 26 0 7 4 7 13 1
16 -14 50 -13 59 1 5 7 8 7 8 -3 0 -8 6 -11 15 -7 9 3 18 -1 22 -9 4 -12 9
-13 18 -5 9 8 15 8 20 0 3 -5 2 -10 -2 -10 -5 0 -14 -10 -22 -23 -13 -21 -13
-22 6 -4 11 9 22 14 26 11 8 -8 3 18 -6 33 -4 7 -15 9 -24 6 -10 -4 -14 -2
-10 4 4 6 0 16 -7 22 -9 8 -16 8 -20 2 -4 -5 -15 -8 -26 -6 -12 2 -18 0 -15
-5 3 -6 -1 -7 -10 -3 -13 5 -14 7 -3 14 7 5 8 9 3 9 -6 0 -16 -5 -23 -12 -8
-8 -12 -9 -12 -1 0 9 -13 10 -38 4 -1 -1 6 -11 18 -23 11 -12 18 -23 16 -25
-7 -7 -36 9 -31 17 3 5 0 12 -6 16 -8 5 -10 2 -5 -7 4 -8 -1 -4 -12 8 -17 19
-21 20 -26 7 -9 -23 -8 -24 12 -17 15 6 16 5 2 -11 -8 -11 -16 -14 -18 -7 -2
6 -8 8 -14 5 -6 -4 -5 2 1 15 9 17 9 20 -3 15 -17 -6 -15 -32 3 -44 8 -4 9
-10 3 -14 -14 -8 -35 20 -26 36 5 10 4 11 -7 0 -7 -6 -18 -12 -24 -12 -5 0 -4
4 4 9 9 6 10 11 2 15 -6 4 -11 2 -11 -5 0 -7 -7 -4 -15 7 -13 16 -14 16 -9 2
4 -11 1 -18 -7 -18 -7 0 -9 3 -6 6 3 4 2 15 -3 25 -6 9 -7 25 -3 34 5 16 7 16
15 1 5 -9 14 -14 19 -10 5 3 16 0 24 -6 10 -8 15 -9 15 -2 0 6 -7 15 -16 20
-12 7 -7 9 18 9 18 0 26 -2 17 -4 -17 -4 -15 -43 2 -43 5 0 6 7 3 15 -4 8 -1
15 6 15 6 0 8 -4 5 -10 -3 -6 -2 -10 3 -10 5 0 14 10 21 23 11 22 11 22 5 -3
-6 -24 -6 -24 12 -8 11 9 31 15 47 13 22 -3 27 0 23 11 -3 9 -2 12 5 9 6 -4 8
-14 5 -22 -4 -9 -1 -13 6 -11 7 3 12 19 12 36 -1 18 3 32 8 32 4 0 5 -12 2
-26 -5 -19 -3 -25 4 -20 15 9 54 -12 47 -25 -6 -8 8 -13 20 -6 2 1 16 -13 30
-32 14 -19 25 -30 25 -25 0 6 -5 15 -12 22 -6 6 -9 14 -6 18 4 3 16 -4 27 -15
12 -12 27 -21 33 -20 10 0 10 2 0 6 -6 2 -10 9 -7 14 4 5 -2 6 -12 2 -16 -6
-16 -5 -5 10 13 15 16 15 40 -1 15 -9 23 -11 18 -4 -4 7 -1 15 9 18 9 4 13 13
10 24 -3 11 0 17 10 17 9 0 14 -6 11 -13 -7 -18 13 -29 27 -15 9 9 7 10 -8 5
-18 -7 -18 -6 -7 9 8 8 20 13 28 10 7 -3 16 2 20 10 3 9 12 13 22 10 13 -4 13
-2 -2 9 -13 11 -16 17 -7 22 6 4 8 12 5 18 -5 7 -2 8 5 4 7 -5 10 -14 7 -22
-5 -13 0 -16 20 -13 4 0 11 -5 16 -13 8 -10 9 -10 5 2 -2 8 -10 14 -16 12 -6
-1 -11 5 -11 13 0 13 4 14 22 4 17 -9 23 -9 26 0 2 6 7 9 11 6 5 -2 7 7 5 21
-1 16 2 24 9 21 7 -2 10 -13 9 -23 -3 -15 -1 -17 9 -7 10 10 10 16 1 25 -20
20 -13 32 8 13 11 -10 20 -13 20 -7 0 7 -4 12 -10 12 -5 0 -7 7 -3 16 5 14 8
13 20 -7 12 -21 13 -21 8 -3 -3 13 1 26 11 35 15 12 16 11 10 -9 -5 -14 -3
-22 4 -22 6 0 8 5 4 12 -5 8 -2 9 9 5 21 -8 21 -3 1 18 -9 9 -14 19 -10 22 3
4 12 1 18 -5 7 -7 19 -12 28 -11 9 0 5 4 -9 10 l-23 9 23 25 c26 26 50 35 29
10 -7 -8 -9 -15 -4 -16 5 0 0 -4 -11 -9 -16 -7 -17 -9 -3 -9 9 -1 20 4 23 9 4
6 10 8 15 5 10 -6 7 21 -3 31 -17 17 -5 25 13 9 11 -10 20 -13 20 -7 0 6 6 10
13 8 6 -1 9 -1 4 1 -4 3 -4 10 -1 16 5 8 2 8 -7 0 -25 -24 -30 -13 -9 17 12
17 23 38 24 48 2 9 11 18 22 20 16 3 17 1 4 -7 -8 -6 -12 -11 -7 -11 4 0 0
-11 -8 -24 -11 -17 -13 -26 -5 -31 6 -4 14 -4 17 -1 4 3 1 6 -6 6 -9 0 -6 11
7 33 15 23 18 37 11 50 -6 9 -8 21 -5 26 3 5 -1 11 -9 15 -18 6 -19 1 -5 -24
9 -16 8 -18 -5 -14 -10 4 -15 2 -13 -7 2 -7 -2 -13 -9 -14 -20 0 -27 -15 -8
-15 34 0 1 -16 -39 -19 -6 -1 -1 -8 10 -16 14 -11 15 -14 3 -9 -10 3 -20 0
-24 -6 -5 -8 -11 -8 -21 1 -8 6 -14 8 -14 4 0 -4 8 -14 18 -22 9 -8 11 -11 3
-7 -10 5 -12 3 -7 -7 4 -8 0 -5 -9 6 -16 19 -16 19 -11 -8 3 -18 1 -25 -6 -21
-7 5 -8 2 -3 -6 5 -9 4 -11 -4 -6 -6 4 -9 12 -6 17 4 5 2 9 -4 9 -19 0 -21
-19 -4 -30 17 -10 17 -10 -2 -8 -12 2 -20 -3 -20 -12 0 -14 -7 -20 -22 -20 -5
0 -2 4 5 9 11 7 11 9 -1 14 -9 3 -21 -2 -29 -11 -11 -13 -11 -15 2 -8 8 4 4
-1 -10 -12 -13 -11 -29 -18 -35 -14 -5 3 -3 -3 5 -14 14 -18 14 -18 -2 -5 -10
7 -19 11 -19 7 -1 -3 -2 -10 -3 -15 -2 -18 -16 -24 -16 -8 0 9 -5 17 -11 17
-6 0 -9 -6 -6 -14 7 -18 -11 -36 -29 -29 -8 3 -14 -1 -14 -8 0 -7 -3 -9 -7 -6
-9 9 -33 -12 -33 -30 0 -10 7 -13 23 -9 12 3 16 3 9 0 -6 -3 -10 -9 -7 -14 2
-4 -6 -7 -19 -7 -20 0 -23 4 -20 23 2 12 -1 26 -8 30 -7 5 -9 2 -5 -9 9 -24
-14 -38 -37 -21 -26 19 -35 18 -31 -4 2 -9 4 -19 4 -22 1 -3 6 2 11 10 8 13
11 13 22 1 11 -11 11 -13 -1 -6 -9 5 -12 4 -8 -2 4 -7 -5 -10 -23 -8 -17 1
-30 -1 -30 -6 0 -4 -9 -6 -21 -4 -17 4 -19 2 -9 -10 9 -11 9 -15 1 -15 -6 0
-11 6 -11 13 0 8 -4 7 -10 -3 -9 -13 -10 -13 -10 0 0 13 -1 13 -10 0 -8 -13
-10 -12 -11 5 -1 11 -1 24 0 29 1 5 -4 6 -12 3 -8 -3 -20 -1 -27 3 -9 5 5 8
34 6 38 -2 50 2 62 18 8 11 14 16 14 12 0 -5 -7 -17 -16 -27 -10 -11 -12 -19
-5 -24 6 -3 11 -2 11 3 0 12 50 62 62 62 5 0 6 -4 3 -10 -3 -5 -1 -10 4 -10 6
0 11 6 11 13 0 8 4 7 10 -3 8 -13 10 -12 10 3 0 9 5 17 11 17 5 0 7 4 4 10 -3
6 1 7 9 4 9 -3 16 -1 16 5 0 11 -12 15 -40 12 -13 -2 -13 0 -1 8 10 6 21 6 33
0 22 -12 23 -28 3 -35 -8 -4 -12 -10 -9 -16 8 -13 34 11 34 32 0 10 -7 23 -15
30 -8 7 -15 17 -15 23 0 5 9 -2 20 -16 11 -14 20 -30 20 -36 0 -6 7 -8 16 -4
13 5 13 8 2 15 -10 8 -9 9 3 5 13 -4 16 0 15 19 0 15 -6 22 -13 19 -7 -2 -13
0 -13 6 0 6 8 9 18 7 10 -2 16 -11 14 -22 -3 -15 0 -16 17 -6 12 6 21 15 21
21 0 6 -4 8 -9 4 -16 -9 -24 15 -10 31 12 14 14 14 25 -1 7 -9 10 -24 6 -33
-5 -14 -3 -15 10 -5 8 7 18 10 21 6 7 -6 11 12 8 30 -1 5 3 6 9 2 5 -3 10 -2
10 4 0 5 -6 11 -12 14 -7 2 -6 3 2 2 8 -2 24 -6 35 -10 18 -6 18 -5 -2 13 -25
22 -32 42 -8 22 18 -15 20 0 3 20 -10 11 -9 11 6 0 18 -14 19 -13 13 3 -4 11
-3 16 4 12 5 -4 7 -16 4 -26 -6 -18 -5 -19 14 -7 12 7 21 16 21 21 0 4 -4 5
-10 2 -5 -3 -10 -1 -10 5 0 7 7 10 15 6 17 -6 19 2 6 23 -6 9 -11 10 -15 2 -4
-6 -12 -11 -18 -11 -6 0 1 9 16 21 14 11 24 25 21 30 -4 5 -1 9 4 9 14 0 14
-13 1 -26 -6 -6 -6 -15 0 -24 8 -13 10 -12 10 3 0 9 5 17 11 17 5 0 7 4 4 10
-3 6 1 7 9 4 9 -3 16 -1 16 5 0 6 -4 11 -10 11 -5 0 -10 5 -10 11 0 8 4 8 13
1 13 -11 42 -11 53 1 7 7 -10 11 -33 8 -7 -1 -13 3 -13 9 0 6 4 9 9 6 5 -4 12
0 14 6 4 10 6 10 6 1 1 -7 6 -13 11 -13 12 0 9 22 -5 33 -5 5 1 5 15 1 22 -6
23 -5 11 9 -7 9 -17 15 -21 12 -5 -3 -11 -1 -14 4 -10 16 11 22 24 7 13 -17
47 -17 54 0 2 6 -6 11 -21 10 -15 -1 -28 5 -30 14 -4 13 -3 13 6 0 9 -12 13
-12 19 -2 5 8 16 10 28 6 19 -7 19 -7 0 14 -11 12 -14 22 -8 22 7 0 12 -5 12
-10 0 -6 6 -5 14 2 18 16 11 29 -12 22 -14 -5 -15 -4 -2 5 11 7 19 6 32 -6 19
-17 15 -38 -5 -26 -8 4 -7 1 1 -9 10 -13 10 -18 1 -24 -8 -5 -10 -3 -5 7 4 8
1 5 -8 -5 -8 -10 -13 -23 -10 -27 3 -5 1 -9 -4 -9 -5 0 -9 -7 -9 -15 0 -8 4
-15 8 -15 5 0 6 -6 4 -12 -6 -17 12 -45 22 -34 4 5 2 11 -4 13 -7 3 -13 9 -13
14 0 6 4 8 8 5 4 -2 14 0 22 5 12 8 11 9 -5 7 -13 -2 -20 4 -23 17 -2 16 -1
17 7 5 8 -11 11 -12 11 -2 0 10 4 10 16 -2 8 -9 21 -16 27 -16 6 0 1 7 -11 16
-29 20 -28 32 2 29 23 -3 24 -1 14 21 -7 14 -17 23 -25 20 -25 -10 -13 3 17
19 27 14 30 14 30 0 0 -9 -4 -13 -10 -10 -6 4 -7 -1 -3 -11 6 -15 7 -15 15 1
5 9 7 22 4 30 -3 8 7 23 22 34 l27 21 -23 18 c-18 14 -20 20 -10 30 17 17 33
15 18 -3 -11 -13 -10 -14 5 -9 14 6 16 4 10 -6 -5 -9 -4 -11 3 -6 9 5 9 13 1
28 -9 16 -7 24 6 37 16 15 17 14 11 -9 -6 -21 -5 -22 4 -7 14 22 3 42 -15 27
-9 -7 -16 -6 -26 6 -11 13 -11 15 2 14 26 -4 40 0 35 9 -4 5 6 19 21 31 20 15
22 18 6 11 -27 -14 -33 -14 -33 -1 0 6 6 10 14 10 8 0 18 4 21 10 4 6 -3 9
-16 7 -12 -1 -24 4 -26 13 -4 12 -3 12 5 1 7 -9 12 -10 16 -2 4 6 2 11 -5 11
-7 0 -9 3 -5 7 11 12 40 12 53 1 10 -8 12 -7 7 5 -3 9 -13 17 -22 19 -14 3
-14 6 6 26 16 16 18 22 7 22 -8 0 -15 -5 -15 -11 0 -5 -4 -8 -9 -5 -16 11 -6
69 13 76 18 6 18 7 3 13 -9 3 -17 12 -17 18 0 8 5 8 16 -2 13 -10 17 -10 25 2
10 16 -28 52 -48 44 -8 -3 -10 2 -4 16 4 11 9 19 11 18 3 -1 15 3 28 10 18 9
20 16 12 31 -5 10 -7 20 -2 23 4 2 2 2 -5 1 -7 -2 -15 1 -18 6 -4 6 -2 10 4
10 5 0 9 9 8 20 -1 11 -5 20 -10 20 -4 0 -7 -7 -5 -16 2 -10 -2 -19 -8 -21
-17 -6 -11 56 6 68 13 9 13 10 0 8 -28 -3 -37 1 -37 16 0 8 4 15 8 15 5 0 13
10 20 21 8 15 8 19 0 15 -6 -4 -12 -1 -12 6 -1 7 -2 18 -4 23 -1 6 -3 15 -4
20 -1 6 -7 2 -14 -7 -12 -15 -14 -15 -25 3 -10 16 -10 20 0 18 7 -1 20 -1 28
0 12 1 11 4 -3 12 -9 6 -15 14 -12 20 9 13 -5 50 -16 44 -5 -4 -8 4 -6 16 2
13 10 25 17 27 8 3 10 0 5 -9 -5 -8 -4 -10 0 -6 5 4 10 14 11 23 2 14 0 14
-21 0 -32 -21 -41 -20 -24 1 10 11 10 14 2 9 -8 -4 -13 -2 -13 4 0 6 -8 9 -18
6 -13 -4 -19 -1 -19 9 0 11 7 14 21 9 17 -4 18 -3 6 5 -13 9 -13 11 2 11 32 0
29 20 -6 41 -24 14 -33 25 -29 36 4 10 2 14 -4 10 -6 -4 -14 -1 -16 5 -3 7 -3
-4 -1 -25 3 -29 1 -36 -8 -31 -8 5 -7 0 2 -11 11 -14 12 -19 2 -22 -6 -3 -10
-8 -7 -13 3 -4 -3 -14 -12 -21 -9 -8 -14 -9 -11 -4 3 6 -4 19 -15 30 -17 17
-19 17 -14 3 4 -10 2 -18 -4 -18 -6 0 -9 8 -7 18 2 10 11 16 22 14 11 -2 15 1
11 7 -3 6 0 9 8 5 8 -3 14 1 14 10 0 8 -9 14 -19 13 -10 -1 -18 -5 -18 -9 0
-4 -7 -4 -17 -1 -11 4 -14 3 -9 -5 4 -7 2 -12 -3 -12 -21 0 -11 21 14 30 14 5
25 11 25 13 0 7 -45 3 -50 -4 -3 -4 -12 0 -20 9 -13 14 -12 15 2 9 10 -3 22 1
30 10 11 15 11 16 -5 10 -12 -5 -26 1 -43 18 -27 27 -32 50 -9 41 9 -3 18 1
21 9 8 19 20 19 22 0 1 -8 3 -22 4 -30 1 -8 6 -11 11 -8 6 4 7 1 2 -6 -6 -10
-3 -11 13 -2 27 15 32 14 26 -3 -3 -8 -13 -12 -22 -9 -15 4 -15 3 -2 -6 11 -8
12 -11 2 -11 -7 0 -10 -5 -6 -12 5 -8 10 -7 18 4 6 8 17 13 24 11 18 -7 15 15
-9 48 -14 20 -27 28 -38 24 -11 -3 -18 0 -18 10 0 10 7 13 24 9 14 -4 23 -2
23 6 0 6 -4 8 -10 5 -5 -3 -19 -1 -31 6 -12 6 -19 7 -15 1 6 -10 -21 -27 -38
-23 -4 1 -15 -4 -24 -11 -12 -10 -14 -10 -8 0 4 7 2 12 -6 12 -7 0 -19 9 -26
20 -7 11 -18 17 -27 14 -8 -3 -13 -10 -10 -14 3 -5 1 -11 -4 -14 -5 -4 -8 1
-7 10 3 21 25 34 45 26 14 -5 14 -3 2 11 -12 16 -15 15 -45 -4 l-31 -21 33 29
c31 27 47 58 17 33 -9 -7 -27 -14 -41 -16 l-26 -2 21 22 c12 12 21 29 21 37 1
8 6 4 13 -9 7 -12 16 -20 19 -16 4 3 12 -4 18 -16 6 -12 14 -19 18 -16 3 4 12
-4 19 -16 11 -20 12 -21 13 -4 0 24 15 11 16 -15 3 -42 4 -44 13 -29 6 8 7 18
5 22 -5 7 10 12 28 9 4 0 4 7 1 16 -4 11 -8 13 -11 5 -2 -7 -8 -12 -13 -12 -6
0 -7 5 -3 12 4 7 3 8 -4 4 -7 -4 -12 -2 -12 4 0 7 -7 10 -15 7 -11 -5 -12 -1
-5 18 7 19 6 23 -5 19 -7 -3 -12 -11 -9 -18 3 -7 -2 -13 -11 -13 -9 0 -14 6
-11 14 3 8 2 11 -3 8 -5 -3 -12 -1 -16 5 -6 10 7 14 33 11 9 -2 7 5 -5 17 -11
11 -22 15 -29 10 -14 -10 -24 0 -24 23 0 10 -5 21 -11 25 -7 4 -9 0 -5 -13 9
-27 -34 -89 -58 -85 -11 2 -15 -1 -11 -7 3 -6 1 -11 -5 -11 -7 0 -10 6 -7 13
2 6 -2 20 -11 30 -10 11 -11 17 -4 17 7 0 12 -5 12 -10 0 -6 6 -5 14 2 8 7 12
15 10 17 -9 10 -39 10 -50 0 -8 -6 -13 -5 -17 5 -4 10 -1 13 9 9 28 -11 13 15
-16 27 -32 13 -37 24 -18 36 7 5 8 3 3 -6 -6 -9 -4 -11 5 -5 8 5 11 4 7 -2 -8
-13 20 -26 35 -16 7 4 8 1 3 -7 -6 -9 -4 -11 5 -5 9 6 11 4 5 -6 -7 -11 -5
-11 10 1 15 12 17 12 10 1 -6 -10 -4 -12 5 -6 9 6 11 4 5 -5 -6 -9 -4 -11 5
-5 9 6 11 4 5 -5 -6 -9 -4 -11 5 -5 9 6 11 4 5 -5 -5 -9 -4 -11 3 -6 8 5 10 1
6 -11 -5 -15 -4 -15 4 -3 6 8 8 18 6 22 -3 4 0 8 7 8 9 0 9 4 -1 15 -6 8 -8
20 -4 27 4 7 4 10 -1 6 -4 -4 -22 7 -39 24 -17 18 -37 33 -45 35 -9 1 -21 10
-28 19 -12 16 -13 17 -13 1 0 -9 5 -17 11 -17 5 0 7 -5 4 -10 -9 -15 -37 9
-31 27 3 7 1 13 -4 13 -6 0 -10 -5 -10 -11 0 -5 -4 -7 -10 -4 -6 4 -7 -1 -3
-12 6 -15 4 -16 -9 -5 -19 15 -49 6 -41 -14 3 -8 9 -11 14 -8 19 11 50 13 43
2 -4 -6 -3 -8 3 -5 5 3 10 0 10 -8 0 -8 -4 -15 -9 -15 -5 0 -6 -4 -3 -10 3 -5
1 -10 -5 -10 -6 0 -9 8 -6 18 7 22 -20 26 -43 8 -10 -7 -13 -7 -8 0 3 6 -9 16
-29 24 -28 11 -33 18 -28 34 6 18 5 19 -9 8 -9 -8 -15 -19 -13 -25 1 -7 1 -9
-1 -4 -7 11 -23 -2 -19 -16 1 -7 1 -9 -1 -4 -3 4 -10 4 -16 0 -9 -5 -9 -3 -1
8 13 15 12 68 -1 88 -5 9 -3 12 6 9 8 -3 13 -11 12 -17 -2 -6 2 -12 7 -12 20
-3 25 -4 36 -12 18 -11 23 16 8 44 -7 13 -13 20 -14 16 0 -5 5 -17 10 -28 17
-31 -4 -21 -22 11 -19 33 -35 38 -44 15 -9 -21 -19 -19 -21 5 -1 11 2 18 8 15
5 -4 9 -1 9 5 0 7 -6 10 -14 7 -21 -8 -28 4 -13 22 11 14 10 14 -5 2 -10 -7
-16 -16 -14 -20 7 -10 -19 -28 -37 -25 -9 1 -17 -3 -17 -9 0 -5 -3 -7 -7 -3
-8 8 -9 13 -12 41 0 8 -5 15 -11 15 -5 0 -7 -7 -3 -16 5 -14 3 -15 -14 -6 -11
6 -23 8 -27 5 -3 -3 -6 -1 -6 5 0 7 -5 12 -12 12 -9 0 -9 -3 0 -12 16 -16 15
-33 -1 -19 -8 6 -17 8 -20 4 -4 -3 -7 1 -7 10 0 9 8 21 18 26 15 9 14 10 -6 8
-12 -2 -28 -9 -35 -17 -10 -10 -9 -11 2 -5 10 5 12 3 7 -11 -3 -11 -1 -26 5
-34 9 -12 10 -11 5 5 -6 20 -6 20 9 1 11 -14 15 -16 15 -5 1 8 6 4 14 -10 8
-14 16 -19 20 -13 3 6 0 12 -6 15 -7 2 -9 8 -5 13 4 5 11 4 15 -2 4 -6 15 -10
25 -8 9 1 15 -2 12 -6 -6 -10 28 -5 47 6 6 4 8 3 4 -4 -8 -13 33 -44 47 -35 6
4 7 1 2 -7 -5 -9 -4 -11 4 -6 6 4 9 12 6 17 -4 5 -1 9 4 9 11 0 14 -11 9 -27
-2 -5 -6 -7 -10 -6 -13 5 -9 -25 5 -31 9 -3 7 -9 -5 -19 -10 -8 -14 -18 -10
-22 4 -5 1 -4 -7 0 -13 7 -13 10 1 18 14 9 14 13 -1 39 -17 29 -37 39 -27 12
3 -8 2 -12 -4 -9 -6 3 -10 1 -10 -4 0 -6 -5 -11 -12 -11 -9 0 -9 3 0 12 7 7
12 17 12 23 -1 5 -10 -1 -22 -15 -13 -15 -19 -18 -15 -8 7 20 -9 35 -16 16 -4
-10 -8 -10 -16 2 -5 8 -8 17 -5 21 2 4 0 10 -6 14 -5 3 -10 1 -10 -5 0 -7 -7
-10 -15 -6 -8 3 -15 1 -15 -4 0 -6 8 -10 18 -10 14 0 15 -2 2 -10 -17 -11 -32
7 -25 31 3 10 -1 16 -10 16 -9 0 -14 -6 -11 -13 3 -9 -1 -11 -12 -7 -14 5 -15
3 -4 -8 6 -7 12 -18 12 -23 0 -6 -7 -2 -15 8 -15 20 -15 20 -30 0 -8 -10 -15
-14 -15 -9 -1 6 -6 1 -11 -10 l-9 -20 3 20 c2 11 9 19 16 17 7 -1 11 3 9 10
-3 7 -13 15 -23 16 -10 2 -15 0 -11 -7 8 -12 -21 -28 -49 -27 -12 1 -20 8 -20
18 0 9 -3 20 -7 23 -4 4 -4 13 -1 21 4 12 8 11 19 -3 13 -17 14 -17 8 0 -6 18
10 24 21 8 3 -6 14 -8 25 -6 14 3 18 0 15 -8 -4 -7 1 -3 9 7 12 15 16 16 16 5
0 -12 2 -12 10 1 8 12 10 12 10 1 0 -8 3 -12 6 -9 3 4 -1 19 -9 34 -13 25 -13
30 2 42 14 12 14 12 -4 4 -11 -6 -24 -11 -30 -11 -5 -1 -10 -8 -10 -16 0 -8
-6 -20 -13 -27 -11 -11 -13 -10 -12 2 5 34 1 43 -14 31 -19 -16 -66 -24 -66
-11 0 10 13 14 37 11 17 -2 23 13 11 29 -8 12 -9 11 -4 -4z m96 -60 c0 -5 -3
-6 -6 -3 -4 3 -16 1 -28 -5 -20 -10 -20 -10 -5 8 9 10 14 26 12 34 -3 10 1 8
11 -4 9 -11 16 -24 16 -30z m-114 8 c11 3 26 6 34 9 8 2 11 2 7 -1 -4 -2 -2
-11 5 -20 11 -15 11 -15 -2 -5 -32 24 -76 -2 -64 -39 4 -15 -9 -30 -28 -34 -5
-1 -11 -2 -15 -3 -5 -1 -1 -6 7 -11 12 -7 10 -9 -8 -7 -12 0 -22 3 -22 5 0 10
30 32 41 30 6 -2 13 2 15 7 2 6 -10 11 -26 11 -17 1 -29 -1 -26 -4 9 -8 -15
-32 -31 -32 -8 0 -25 -8 -38 -18 -21 -17 -22 -20 -8 -34 12 -13 13 -17 1 -23
-7 -5 -10 -4 -5 0 4 5 0 17 -9 26 -15 17 -15 19 0 25 9 3 13 10 10 15 -3 5 -2
9 3 8 16 -4 73 23 67 32 -3 5 -13 5 -23 -1 -10 -5 -21 -6 -25 -3 -3 3 -6 1 -6
-6 0 -8 -7 -11 -15 -7 -8 3 -15 1 -15 -5 0 -7 -11 -9 -27 -5 -21 5 -24 4 -13
-4 13 -9 13 -11 0 -20 -19 -13 -37 -13 -45 0 -4 6 -11 8 -16 5 -14 -9 -11 -21
6 -23 8 -1 22 -3 30 -4 8 -1 15 -5 15 -10 0 -11 -7 -10 -30 2 -14 7 -20 6 -26
-8 -4 -9 -6 -21 -5 -25 1 -5 -3 -6 -9 -2 -7 4 -8 11 -2 18 7 9 9 46 3 65 -1 1
-1 5 -2 10 0 4 -6 14 -12 22 -10 13 -10 13 6 1 12 -9 17 -10 17 -2 0 13 31 11
41 -2 3 -5 9 -2 12 6 4 11 0 15 -13 12 -10 -2 -26 3 -37 10 -16 13 -15 14 15
10 18 -2 40 -9 48 -16 11 -9 14 -9 14 1 0 8 3 10 7 7 3 -4 15 0 25 10 10 9 21
13 25 9 4 -4 1 -11 -7 -16 -8 -6 -10 -10 -4 -10 6 0 14 3 18 7 13 13 37 11 43
-4 5 -12 7 -12 14 -1 7 11 11 10 19 -2 5 -8 10 -10 10 -4 0 6 -7 17 -15 24 -8
7 -15 16 -15 20 0 12 33 18 51 9 9 -5 25 -7 35 -5z m249 -6 c5 4 5 1 1 -6 -5
-9 -12 -9 -27 -2 -10 6 -19 13 -19 16 0 2 8 0 19 -5 10 -6 22 -7 26 -3z m100
-37 c-2 -9 -4 -17 -4 -19 -1 -1 -10 2 -22 8 -20 11 -20 12 -3 31 19 21 35 10
29 -20z m65 -2 c16 -30 8 -31 -13 -3 -10 13 -13 24 -8 24 6 0 15 -9 21 -21z
m-783 -52 c0 -8 -6 -14 -14 -14 -14 0 -17 10 -6 20 10 11 20 8 20 -6z m-39
-14 c-2 -10 -11 -18 -21 -18 -9 0 -16 -4 -16 -9 1 -8 -20 -26 -31 -26 -3 0 -6
9 -7 20 -1 11 1 19 5 19 21 -3 32 2 26 13 -5 8 -2 9 9 5 9 -3 19 -2 22 3 10
16 17 11 13 -7z m402 13 c0 -2 -7 -7 -16 -10 -8 -3 -12 -2 -9 4 6 10 25 14 25
6z m140 0 c0 -3 -4 -8 -10 -11 -5 -3 -10 -1 -10 4 0 6 5 11 10 11 6 0 10 -2
10 -4z m85 -6 c-3 -5 -11 -10 -16 -10 -6 0 -7 5 -4 10 3 6 11 10 16 10 6 0 7
-4 4 -10z m-72 -15 c-3 -9 -8 -14 -10 -11 -3 3 -2 9 2 15 9 16 15 13 8 -4z
m111 -1 c3 -8 2 -12 -4 -9 -6 3 -10 10 -10 16 0 14 7 11 14 -7z m-361 -1 c-7
-2 -19 -2 -25 0 -7 3 -2 5 12 5 14 0 19 -2 13 -5z m112 -1 c-3 -3 0 -11 6 -19
17 -20 5 -16 -14 5 -15 16 -15 19 -2 19 8 0 13 -3 10 -5z m43 -9 c-12 -15 -22
-18 -14 -4 4 5 0 11 -6 14 -7 3 -3 4 9 4 17 -1 19 -4 11 -14z m282 7 c0 -5 -4
-10 -10 -10 -5 0 -10 5 -10 10 0 6 5 10 10 10 6 0 10 -4 10 -10z m274 -21 c7
10 46 11 46 0 0 -3 14 -20 30 -37 37 -39 40 -65 4 -31 -14 13 -29 23 -32 22
-4 -2 -7 3 -7 10 -1 18 -15 37 -28 37 -8 0 -8 -3 -2 -8 14 -10 18 -42 5 -42
-5 0 -10 7 -10 15 0 14 -13 20 -35 15 -5 -1 -7 2 -3 6 4 4 2 14 -4 23 -9 11
-6 10 9 -2 13 -11 23 -14 27 -8z m-694 5 c0 -8 -19 -13 -24 -6 -3 5 1 9 9 9 8
0 15 -2 15 -3z m297 -19 c0 -8 -4 -12 -9 -9 -5 3 -6 10 -3 15 9 13 12 11 12
-6z m249 -3 c1 -7 0 -8 -3 -2 -2 5 -9 8 -14 4 -5 -3 -9 0 -9 6 0 15 23 7 26
-8z m-797 -14 c14 -23 14 -23 -7 -5 -20 18 -20 18 -27 -3 -4 -12 -9 -19 -12
-17 -6 7 15 47 25 47 4 0 13 -10 21 -22z m87 -3 c1 -8 -3 -13 -9 -12 -7 1 -11
-3 -10 -9 1 -6 -5 -11 -13 -11 -11 0 -9 6 6 22 11 12 18 25 15 28 -3 4 -2 5 2
2 4 -3 8 -12 9 -20z m747 -6 c5 -3 2 -9 -5 -12 -9 -3 -14 3 -15 15 -1 11 1 16
5 12 4 -5 11 -12 15 -15z m-183 5 c0 -8 -19 -13 -24 -6 -3 5 1 9 9 9 8 0 15
-2 15 -3z m120 -6 c0 -6 -3 -8 -7 -5 -3 4 -13 1 -22 -6 -14 -11 -14 -10 -2 6
15 20 31 22 31 5z m100 2 c0 -5 -4 -10 -10 -10 -5 0 -10 5 -10 10 0 6 5 10 10
10 6 0 10 -4 10 -10z m-1085 -11 c4 -5 11 -6 17 -3 7 5 8 2 3 -5 -5 -9 -10
-10 -18 -2 -7 7 -14 7 -23 1 -8 -7 -13 -6 -17 3 -6 15 29 21 38 6z m205 -3 c0
-3 -4 -8 -10 -11 -5 -3 -10 -1 -10 4 0 6 5 11 10 11 6 0 10 -2 10 -4z m700 -6
c0 -5 -5 -10 -11 -10 -5 0 -7 5 -4 10 3 6 8 10 11 10 2 0 4 -4 4 -10z m-763
-19 c0 -11 -5 -18 -9 -15 -4 3 -5 11 -1 19 7 21 12 19 10 -4z m83 15 c0 -2 -8
-10 -17 -17 -16 -13 -17 -12 -4 4 13 16 21 21 21 13z m867 -18 c-3 -8 -6 -5
-6 6 -1 11 2 17 5 13 3 -3 4 -12 1 -19z m51 5 c2 -7 -1 -13 -8 -13 -6 0 -9 4
-5 9 3 5 -3 12 -12 15 -15 4 -15 5 1 3 11 -1 21 -8 24 -14z m-84 -1 c3 -5 -1
-9 -9 -9 -8 0 -12 4 -9 9 3 4 7 8 9 8 2 0 6 -4 9 -8z m-974 -44 c0 -4 -5 -8
-12 -8 -6 0 -8 3 -5 6 3 4 2 16 -4 28 -10 20 -10 20 5 2 9 -11 16 -23 16 -28z
m920 28 c0 -3 -4 -8 -10 -11 -5 -3 -10 -1 -10 4 0 6 5 11 10 11 6 0 10 -2 10
-4z m120 -21 c0 -8 -3 -16 -7 -18 -5 -3 -8 5 -8 18 0 13 3 21 8 18 4 -2 7 -10
7 -18z m-60 11 c0 -2 -8 -10 -17 -17 -16 -13 -17 -12 -4 4 13 16 21 21 21 13z
m35 -5 c3 -5 2 -12 -3 -15 -5 -3 -9 1 -9 9 0 17 3 19 12 6z m59 -7 c3 -8 2
-12 -4 -9 -6 3 -10 1 -10 -6 0 -7 -2 -10 -5 -7 -5 5 4 38 10 38 2 0 6 -7 9
-16z m175 3 c14 4 14 3 1 -6 -21 -15 -27 -14 -35 7 -5 13 -3 14 6 5 6 -6 19
-9 28 -6z m-1155 -6 c-7 -8 -54 -9 -59 -2 -2 4 12 7 30 7 19 0 32 -3 29 -5z
m-120 -20 c3 -5 -2 -15 -12 -22 -15 -12 -16 -12 -5 2 7 9 10 19 6 22 -3 4 -4
7 0 7 3 0 8 -4 11 -9z m43 -31 c-2 -23 -10 -17 -12 10 -1 10 2 17 6 14 4 -2 7
-13 6 -24z m-77 10 c0 -5 -4 -10 -10 -10 -5 0 -10 5 -10 10 0 6 5 10 10 10 6
0 10 -4 10 -10z m-56 -26 c3 -8 10 -13 15 -9 5 3 13 0 17 -7 4 -7 4 -10 -1 -6
-4 4 -15 2 -23 -5 -10 -7 -13 -8 -9 -1 4 7 0 17 -8 24 -13 10 -15 9 -16 -11 0
-13 -3 -18 -6 -11 -6 16 3 42 16 42 5 0 12 -7 15 -16z m93 -31 c-4 -3 -1 -13
6 -22 11 -14 10 -14 -5 -2 -16 12 -16 31 -1 31 4 0 3 -3 0 -7z m1188 -3 c-3
-5 -12 -10 -18 -10 -7 0 -6 4 3 10 19 12 23 12 15 0z m82 -36 c-3 -3 -12 -4
-19 -1 -8 3 -5 6 6 6 11 1 17 -2 13 -5z m-30 -34 c-2 -23 -10 -17 -12 10 -1
10 2 17 6 14 4 -2 7 -13 6 -24z m62 -5 c2 12 40 -36 41 -50 0 -5 -8 2 -18 16
-9 14 -24 25 -33 24 -12 -2 -15 3 -11 24 l6 26 7 -25 c4 -14 8 -20 8 -15z
m126 16 c7 -12 -12 -24 -25 -16 -11 7 -4 25 10 25 5 0 11 -4 15 -9z m-1611
-27 c3 -8 2 -12 -4 -9 -6 3 -10 10 -10 16 0 14 7 11 14 -7z m-91 -3 c5 -1 6
-5 2 -10 -3 -5 -1 -12 5 -16 5 -3 10 -12 10 -18 0 -7 -9 2 -20 18 -21 31 -28
28 -10 -5 14 -25 3 -50 -18 -42 -14 5 -15 3 -5 -9 8 -9 9 -20 3 -29 -9 -14
-12 -7 -9 16 1 8 -23 24 -36 24 -7 0 -7 -3 0 -8 9 -6 14 -19 19 -49 1 -7 5
-16 9 -19 10 -11 8 -34 -3 -34 -5 0 -7 6 -4 14 4 11 0 13 -15 9 -12 -3 -21
-10 -21 -15 0 -5 5 -6 10 -3 6 4 5 -5 -2 -20 -8 -18 -14 -22 -19 -13 -4 7 -12
9 -16 4 -4 -4 7 -20 25 -34 18 -15 32 -30 32 -34 0 -5 -9 0 -19 10 -41 36 -50
42 -56 32 -3 -5 7 -16 22 -24 l28 -15 -30 4 c-16 1 -29 8 -28 14 2 6 -3 11
-10 11 -6 0 -4 5 6 11 9 5 17 15 17 22 0 7 -4 6 -10 -3 -5 -8 -12 -11 -17 -7
-11 11 16 25 42 22 18 -1 22 3 21 20 0 13 -6 21 -13 18 -7 -3 -10 -9 -7 -14 3
-5 0 -9 -6 -9 -7 0 -9 8 -5 21 5 13 3 19 -3 15 -5 -3 -15 1 -21 8 -10 11 -8
16 7 20 25 8 70 56 53 56 -11 0 -11 3 -1 15 7 9 20 13 29 10 8 -3 12 -3 9 1
-12 12 11 42 29 39 10 -2 22 -4 26 -4z m-68 -11 c3 -5 1 -10 -4 -10 -6 0 -11
5 -11 10 0 6 2 10 4 10 3 0 8 -4 11 -10z m1661 -34 c2 -14 -20 -16 -33 -2 -4
4 -1 6 7 4 9 -2 14 3 12 12 -2 8 0 11 4 7 4 -4 9 -14 10 -21z m-1541 -14 c-3
-3 -11 0 -18 7 -9 10 -8 11 6 5 10 -3 15 -9 12 -12z m1581 -11 c-4 -5 -1 -11
5 -13 7 -2 6 -8 -3 -16 -12 -10 -14 -8 -12 11 3 27 3 27 10 27 3 0 3 -4 0 -9z
m164 -47 c-17 -8 -29 -18 -25 -24 3 -5 1 -10 -6 -10 -7 0 -4 -6 7 -14 10 -8
21 -10 22 -5 2 5 8 6 13 3 6 -3 2 -12 -8 -20 -16 -13 -16 -14 0 -8 10 4 17 1
17 -6 0 -6 6 -8 13 -4 10 6 10 4 0 -7 -14 -14 -17 -30 -5 -28 22 4 33 -3 30
-18 -1 -10 2 -25 7 -33 7 -13 6 -13 -7 -2 -23 19 -29 -6 -10 -37 15 -22 16
-22 30 -5 14 18 15 18 8 0 -3 -10 -1 -25 6 -33 9 -11 9 -16 -2 -23 -19 -12
-21 -40 -3 -47 12 -5 12 -7 1 -14 -7 -5 -8 -9 -2 -9 6 0 10 -11 8 -25 -1 -16
4 -29 17 -35 29 -16 42 -47 23 -54 -11 -4 -15 -2 -11 7 3 8 -3 21 -14 30 -10
9 -19 15 -19 13 0 -3 -3 -12 -7 -21 -5 -14 -2 -16 18 -10 18 5 21 4 9 -4 -8
-6 -11 -11 -5 -11 5 0 4 -5 -3 -12 -8 -8 -15 -8 -25 0 -8 7 -17 9 -20 5 -9 -9
-9 -23 1 -22 25 4 33 -3 27 -22 -5 -14 -3 -19 7 -18 21 5 59 -12 52 -22 -4 -6
-11 -6 -19 1 -15 13 -30 -3 -20 -20 4 -6 1 -17 -5 -25 -7 -8 -9 -15 -5 -15 4
0 2 -6 -4 -14 -7 -8 -8 -16 -4 -18 4 -3 1 -3 -7 -1 -8 2 -11 1 -7 -3 4 -4 -1
-17 -10 -28 -18 -21 -18 -21 4 -3 25 21 42 16 40 -13 -1 -10 -4 -17 -8 -15
-13 8 -42 -34 -33 -47 5 -7 9 -22 8 -33 -3 -48 -3 -50 -20 -29 -8 10 -13 14
-10 7 4 -6 1 -15 -4 -18 -8 -5 -6 -13 4 -24 15 -16 14 -20 -9 -41 -19 -18 -22
-26 -14 -37 6 -7 9 -14 5 -14 -3 -1 -10 -3 -16 -4 -5 -1 -15 -3 -21 -4 -5 0
-7 -6 -3 -12 4 -8 9 -7 15 2 5 8 9 10 9 6 0 -4 9 -3 20 3 25 13 26 2 3 -17
-58 -46 -59 -46 -88 -17 -22 22 -29 24 -36 13 -5 -8 -9 -9 -9 -3 0 18 12 24
31 13 20 -11 22 -9 13 15 -3 8 -12 12 -19 10 -7 -3 -16 -1 -20 5 -4 7 0 8 11
4 13 -5 15 -3 9 8 -7 11 -6 12 6 3 18 -14 51 -14 46 0 -2 6 -12 10 -22 8 -11
-2 -14 1 -10 8 4 6 13 9 20 6 8 -3 19 3 27 11 11 14 11 16 -3 11 -9 -3 -22 -2
-30 4 -11 8 -11 9 3 4 20 -6 34 10 16 18 -9 4 -8 5 2 5 29 -2 37 1 37 16 0 8
-4 15 -9 15 -4 0 -8 -4 -8 -9 0 -6 -9 -9 -19 -8 -11 0 -18 4 -15 8 2 4 -2 10
-8 12 -8 4 -7 6 4 6 9 1 18 -3 20 -9 2 -5 17 2 33 16 17 14 22 23 13 20 -53
-18 -53 -18 -33 -5 29 18 35 30 24 53 -10 20 -10 20 5 2 9 -10 13 -24 9 -30
-4 -7 -2 -7 7 1 8 8 9 16 2 29 -6 11 -7 25 -1 35 10 19 -3 34 -36 42 -19 4
-18 5 2 6 12 0 25 -4 28 -9 4 -6 11 -8 16 -5 11 7 12 26 2 24 -30 -5 -35 2
-18 21 10 11 14 20 9 20 -6 0 -10 17 -10 38 -1 20 1 30 3 20 5 -22 31 -31 51
-17 16 10 16 10 0 5 -15 -4 -39 20 -43 44 -1 3 -5 16 -9 29 -6 19 -4 28 10 38
9 7 15 16 11 19 -4 4 -13 1 -22 -6 -9 -7 -19 -10 -22 -6 -11 11 -12 36 -1 36
6 0 8 -7 4 -15 -6 -17 9 -21 20 -4 3 6 1 16 -5 22 -7 7 -2 16 18 31 l29 22
-24 11 c-21 10 -23 9 -21 -10 1 -14 -4 -22 -16 -23 -12 -1 -13 0 -2 3 19 6 19
9 -5 33 -11 11 -20 26 -19 33 0 9 2 9 6 -1 2 -6 9 -10 14 -7 5 4 6 -2 2 -12
-5 -15 -2 -14 16 4 31 33 31 33 -39 34 -18 0 -21 2 -11 9 8 4 21 6 30 3 10 -4
6 4 -9 19 -14 14 -29 23 -34 20 -5 -3 -6 0 -2 6 4 7 2 12 -5 12 -7 0 -9 3 -6
6 4 4 12 3 19 -3 7 -5 23 -10 36 -11 18 -1 21 2 13 12 -6 8 -8 22 -4 32 6 17
5 17 -10 5 -9 -7 -14 -17 -11 -22 3 -5 0 -9 -5 -9 -15 0 -14 13 2 29 10 11 8
12 -10 6 -15 -4 -23 -2 -23 6 0 7 3 9 7 6 3 -4 12 -2 20 4 8 8 13 8 13 1 0 -6
7 -9 15 -8 19 3 28 12 12 14 -6 1 -27 3 -44 5 -18 2 -35 -2 -37 -7 -3 -7 -5
-7 -5 0 -2 21 26 36 47 25 14 -8 19 -7 19 5 0 7 -3 12 -5 9 -3 -3 -11 0 -19 6
-10 9 -18 7 -35 -7 -12 -11 -18 -13 -14 -6 4 6 2 12 -3 12 -6 0 -11 5 -11 11
0 8 4 8 14 0 9 -7 17 -8 20 -2 3 5 1 11 -5 13 -13 4 4 40 31 68 9 8 11 11 4 7
-7 -4 -15 -3 -19 3 -3 5 -1 10 6 10 8 0 8 4 -2 16 -8 10 1 8 25 -7 l38 -22
-32 -13z m-1786 30 c3 -8 2 -12 -4 -9 -6 3 -10 10 -10 16 0 14 7 11 14 -7z m6
-31 c0 -3 -7 -3 -15 1 -8 3 -15 0 -15 -6 0 -6 -3 -9 -6 -5 -11 10 6 26 21 20
8 -3 15 -7 15 -10z m1640 3 c0 -2 -6 -9 -14 -15 -11 -9 -16 -9 -22 0 -4 7 -3
9 4 5 6 -3 13 -2 17 4 6 10 15 14 15 6z m-1682 -41 c-3 -3 -9 2 -12 12 -6 14
-5 15 5 6 7 -7 10 -15 7 -18z m1729 -27 c-3 -7 -5 -2 -5 12 0 14 2 19 5 13 2
-7 2 -19 0 -25z m-1707 12 c0 -5 -5 -10 -11 -10 -5 0 -7 5 -4 10 3 6 8 10 11
10 2 0 4 -4 4 -10z m1620 4 c0 -8 -19 -13 -24 -6 -3 5 1 9 9 9 8 0 15 -2 15
-3z m56 -6 c3 -4 -1 -5 -10 -4 -8 1 -18 5 -22 8 -3 4 1 5 10 4 8 -1 18 -5 22
-8z m-45 -31 c-10 -9 -11 -8 -5 6 3 10 9 15 12 12 3 -3 0 -11 -7 -18z m-1618
-2 c-3 -9 -8 -14 -10 -11 -3 3 -2 9 2 15 9 16 15 13 8 -4z m-33 -5 c0 -5 -2
-10 -4 -10 -3 0 -8 5 -11 10 -3 6 -1 10 4 10 6 0 11 -4 11 -10z m-40 -4 c0 -3
-4 -8 -10 -11 -5 -3 -10 -1 -10 4 0 6 5 11 10 11 6 0 10 -2 10 -4z m36 -42 c1
-9 -1 -13 -4 -9 -4 4 -7 12 -7 18 -1 7 -7 11 -14 9 -7 -1 -9 2 -6 9 9 13 28
-3 31 -27z m1704 26 c0 -5 -2 -10 -4 -10 -3 0 -8 5 -11 10 -3 6 -1 10 4 10 6
0 11 -4 11 -10z m49 -24 c9 -10 8 -15 -2 -19 -8 -3 -13 3 -13 14 0 23 0 23 15
5z m-51 -21 c-3 -3 -9 2 -12 12 -6 14 -5 15 5 6 7 -7 10 -15 7 -18z m-1858 -9
c0 -3 -4 -8 -10 -11 -5 -3 -10 -1 -10 4 0 6 5 11 10 11 6 0 10 -2 10 -4z
m1835 -14 c-3 -3 -11 0 -18 7 -9 10 -8 11 6 5 10 -3 15 -9 12 -12z m105 14 c0
-2 -7 -7 -16 -10 -8 -3 -12 -2 -9 4 6 10 25 14 25 6z m-1841 -71 c0 -5 -4 -3
-9 5 -5 8 -9 22 -9 30 0 16 17 -16 18 -35z m1856 -3 c-3 -3 -11 0 -18 7 -9 10
-8 11 6 5 10 -3 15 -9 12 -12z m-20 -20 c-3 -3 -11 0 -18 7 -9 10 -8 11 6 5
10 -3 15 -9 12 -12z m-1815 -8 c0 -8 -19 -13 -24 -6 -3 5 1 9 9 9 8 0 15 -2
15 -3z m-130 -34 c-17 -10 -1 -18 37 -16 17 0 29 -3 26 -7 -3 -5 -16 -7 -29
-4 -13 2 -24 0 -24 -4 0 -5 5 -9 12 -9 6 0 3 -9 -7 -20 -10 -11 -13 -20 -7
-20 6 0 14 5 17 10 3 6 10 10 16 10 5 0 1 -8 -8 -18 -12 -13 -22 -16 -30 -9
-7 5 -13 7 -13 4 0 -3 -3 -14 -6 -24 -4 -13 -3 -15 4 -4 7 9 12 10 16 2 6 -10
-6 -15 -26 -12 -5 0 -8 -3 -8 -7 0 -19 15 -21 37 -7 13 9 23 11 23 5 0 -5 -4
-10 -9 -10 -5 0 -11 -8 -15 -17 -3 -10 -9 -25 -12 -33 -3 -8 6 -3 19 12 19 21
27 24 31 13 3 -8 2 -14 -2 -12 -5 1 -21 -9 -37 -24 -33 -28 -45 -55 -21 -46
10 4 13 1 10 -8 -4 -9 1 -12 13 -10 10 2 22 4 26 4 5 1 6 5 3 9 -3 5 2 9 11 9
13 0 11 -4 -6 -18 -12 -10 -21 -21 -21 -26 1 -4 -4 -9 -12 -11 -10 -3 -10 -2
1 6 7 5 9 12 4 15 -12 8 -27 -4 -31 -25 -2 -13 3 -16 20 -12 46 11 68 12 68 4
0 -4 -10 -8 -22 -9 -46 -1 -58 -5 -55 -15 3 -6 10 -10 16 -8 7 1 10 -2 7 -7
-4 -5 0 -12 6 -14 9 -4 9 -6 1 -6 -6 -1 -18 6 -26 14 -12 11 -17 12 -21 2 -3
-6 -4 -1 -1 13 3 14 2 19 -1 12 -5 -10 -9 -10 -22 0 -14 10 -15 10 -4 -2 16
-18 15 -27 -2 -27 -9 0 -13 9 -11 26 2 14 -1 34 -6 43 -7 13 -4 20 10 27 23
13 21 39 -3 57 -18 13 -13 40 5 29 10 -7 11 -4 13 35 0 15 -4 24 -11 23 -7 -2
-13 2 -13 7 0 5 4 10 9 10 6 0 8 9 6 19 -2 11 3 25 11 32 11 9 12 15 2 26 -9
11 -9 16 2 23 8 5 18 6 22 4 4 -3 8 0 8 6 0 6 5 8 11 4 8 -5 8 -9 -1 -14z m90
10 c0 -5 -5 -10 -11 -10 -5 0 -7 5 -4 10 3 6 8 10 11 10 2 0 4 -4 4 -10z m-45
-10 c3 -6 -1 -7 -9 -4 -18 7 -21 14 -7 14 6 0 13 -4 16 -10z m85 -4 c0 -3 -4
-8 -10 -11 -5 -3 -10 -1 -10 4 0 6 5 11 10 11 6 0 10 -2 10 -4z m1843 -53 c-5
-12 -3 -14 7 -8 8 5 11 4 6 -3 -4 -6 -13 -9 -22 -5 -11 4 -12 9 -3 19 15 19
20 18 12 -3z m-42 -10 c13 -16 12 -17 -3 -4 -10 7 -18 15 -18 17 0 8 8 3 21
-13z m-1846 -13 c-3 -5 -12 -10 -18 -10 -7 0 -6 4 3 10 19 12 23 12 15 0z
m-42 -15 c-3 -9 -8 -14 -10 -11 -3 3 -2 9 2 15 9 16 15 13 8 -4z m64 -60 c0
-8 -4 -12 -9 -9 -5 3 -6 10 -3 15 9 13 12 11 12 -6z m1883 3 c0 -6 -3 -8 -7
-5 -3 4 -13 1 -22 -6 -14 -11 -14 -10 -2 6 15 20 31 22 31 5z m-1922 -23 c-3
-3 -9 2 -12 12 -6 14 -5 15 5 6 7 -7 10 -15 7 -18z m1915 -10 c-3 -9 -8 -14
-10 -11 -3 3 -2 9 2 15 9 16 15 13 8 -4z m37 -5 c0 -5 -5 -10 -11 -10 -5 0 -7
-5 -3 -12 4 -7 3 -8 -4 -4 -6 4 -9 13 -5 21 6 17 23 20 23 5z m-1983 -19 c-10
-4 -18 -10 -18 -14 3 -25 0 -31 -9 -17 -11 18 5 40 29 39 13 0 13 -2 -2 -8z
m44 -8 c13 -16 12 -17 -3 -4 -10 7 -18 15 -18 17 0 8 8 3 21 -13z m1901 -8 c3
3 11 -3 19 -12 13 -16 12 -17 -3 -4 -10 7 -18 10 -18 6 0 -5 -8 -1 -18 8 -10
10 -22 14 -27 10 -4 -5 -5 -2 -1 5 7 11 11 10 25 -2 10 -9 20 -14 23 -11z
m-1872 -25 c0 -5 -5 -10 -11 -10 -5 0 -7 5 -4 10 3 6 8 10 11 10 2 0 4 -4 4
-10z m1897 -30 c1 -11 -2 -20 -7 -20 -6 0 -7 17 -1 38 3 8 7 -1 8 -18z m-1902
-18 c-3 -3 -11 0 -18 7 -9 10 -8 11 6 5 10 -3 15 -9 12 -12z m1879 -10 c2 -4
-5 -9 -17 -9 -17 -2 -19 0 -7 7 18 12 18 12 24 2z m-1879 -22 c3 -5 1 -10 -4
-10 -6 0 -11 5 -11 10 0 6 2 10 4 10 3 0 8 -4 11 -10z m-61 -12 c-5 -7 -2 -9
8 -6 8 4 15 0 15 -7 0 -10 -5 -11 -19 -4 -20 11 -24 29 -7 29 5 0 7 -5 3 -12z
m1923 -3 c0 -8 -4 -12 -9 -9 -5 3 -6 10 -3 15 9 13 12 11 12 -6z m53 -26 c0
-5 -4 -8 -9 -5 -4 3 -13 -5 -19 -19 -10 -22 -33 -28 -48 -12 -4 3 3 4 16 2 16
-3 20 0 16 11 -3 8 -2 13 3 10 5 -3 11 1 15 9 6 17 26 20 26 4z m-1975 -9 c-3
-5 -12 -10 -18 -10 -7 0 -6 4 3 10 19 12 23 12 15 0z m38 -18 c14 -15 14 -19
3 -19 -8 0 -14 5 -13 11 1 6 -4 10 -11 8 -8 -1 -11 2 -7 8 8 13 9 13 28 -8z
m-80 -36 c-3 -5 0 -6 8 -4 8 3 13 14 12 24 -1 10 0 14 3 7 3 -7 13 -9 22 -6
13 4 12 2 -3 -10 -17 -14 -17 -16 -4 -17 24 0 31 -28 11 -40 -13 -7 -14 -12
-4 -18 7 -5 10 -22 8 -40 -4 -34 2 -39 23 -19 11 10 12 9 5 -3 -4 -8 -9 -21
-10 -30 -1 -8 -5 -23 -9 -33 -5 -12 -3 -16 7 -12 7 3 26 -8 42 -24 16 -16 35
-27 42 -24 8 3 14 0 14 -7 0 -6 -5 -8 -11 -4 -7 4 -10 1 -7 -7 3 -8 -2 -22
-11 -33 -15 -18 -15 -18 9 -12 17 5 20 4 12 -2 -11 -7 -8 -11 10 -17 12 -4 30
-7 38 -6 10 0 11 -1 2 -5 -6 -3 -9 -11 -5 -17 3 -6 -4 -3 -18 6 -33 24 -49 21
-20 -3 18 -15 21 -23 12 -33 -6 -8 -8 -16 -5 -19 6 -7 61 44 57 53 -1 3 4 6
12 6 8 0 16 -6 19 -13 3 -9 -1 -11 -11 -7 -11 4 -14 2 -9 -5 5 -8 2 -10 -8 -6
-21 8 -20 0 1 -21 13 -14 14 -18 2 -25 -7 -5 -10 -12 -6 -16 3 -4 12 -2 19 3
15 12 49 13 42 2 -2 -5 -12 -6 -22 -3 -16 5 -16 5 1 -9 22 -18 22 -28 0 -20
-10 3 -15 3 -11 -2 4 -4 3 -14 -3 -22 -16 -18 2 -16 29 3 13 9 21 22 18 29 -5
14 18 14 31 0 4 -4 4 -6 -2 -3 -5 3 -18 -5 -28 -18 -18 -25 -10 -33 11 -12 9
9 12 9 12 0 0 -7 -3 -12 -8 -12 -4 0 -13 -9 -20 -20 -11 -19 -10 -20 13 -16
13 3 30 8 36 12 16 9 30 -17 22 -41 -5 -16 -3 -18 8 -8 18 15 52 -8 44 -29 -4
-9 0 -15 10 -15 9 0 14 6 11 13 -3 8 0 11 10 7 12 -4 12 -8 2 -22 -21 -26 -78
-55 -63 -32 2 5 -7 19 -20 31 -14 13 -25 20 -25 15 0 -5 -11 2 -24 14 -16 15
-26 19 -31 12 -3 -6 -11 -9 -16 -6 -10 7 -8 33 4 53 7 11 -3 17 -25 13 -5 0
-8 4 -8 10 0 5 -4 8 -9 5 -5 -3 -20 3 -32 14 -16 12 -19 19 -10 20 11 0 10 4
-3 19 -11 12 -25 17 -34 14 -11 -5 -14 -2 -9 11 4 10 1 19 -8 22 -8 4 -12 10
-9 16 3 5 -2 8 -12 6 -20 -3 -28 27 -12 48 5 7 2 17 -7 24 -12 10 -15 10 -15
0 0 -19 -10 -6 -15 19 -2 12 1 21 8 21 7 0 -3 8 -20 16 -31 16 -48 42 -20 31
7 -3 21 1 31 9 17 12 17 13 -2 11 -11 0 -18 -5 -15 -11 3 -5 1 -6 -6 -2 -12 8
-42 61 -40 72 0 4 -5 11 -13 15 -10 7 -10 9 0 9 9 0 8 7 -4 25 -13 20 -19 23
-36 14 -19 -10 -19 -10 -3 14 11 17 13 27 5 32 -6 4 -2 13 11 24 23 19 19 44
-6 34 -15 -5 -21 8 -9 20 9 9 53 -26 47 -37z m1994 -8 c-3 -8 -6 -5 -6 6 -1
11 2 17 5 13 3 -3 4 -12 1 -19z m-1910 -45 c-4 -3 -1 -13 6 -22 11 -14 10 -14
-5 -2 -21 15 -23 31 -6 31 6 0 8 -3 5 -7z m58 -3 c3 -5 1 -10 -4 -10 -6 0 -11
5 -11 10 0 6 2 10 4 10 3 0 8 -4 11 -10z m1775 4 c0 -8 -19 -13 -24 -6 -3 5 1
9 9 9 8 0 15 -2 15 -3z m-1835 -44 c3 -5 1 -10 -4 -10 -6 0 -11 5 -11 10 0 6
2 10 4 10 3 0 8 -4 11 -10z m1862 -5 c4 -4 2 -5 -4 -1 -13 7 -17 -4 -14 -31 1
-7 -2 -13 -6 -13 -5 0 -9 13 -8 29 0 27 15 35 32 16z m-1820 -1 c-3 -3 -12 -4
-19 -1 -8 3 -5 6 6 6 11 1 17 -2 13 -5z m-8 -47 c0 -9 -2 -8 -6 1 -2 6 -10 9
-15 6 -7 -4 -8 -2 -4 5 9 13 26 5 25 -12z m41 -2 c-14 -17 -30 -20 -30 -4 0 5
4 8 9 4 5 -3 12 -1 16 5 3 5 9 10 12 10 3 0 0 -7 -7 -15z m-55 -25 c-3 -5 -11
-10 -16 -10 -6 0 -7 5 -4 10 3 6 11 10 16 10 6 0 7 -4 4 -10z m45 -35 c0 -2
-5 -7 -12 -11 -7 -4 -8 -3 -4 4 4 7 1 12 -8 12 -9 0 -16 5 -16 10 0 7 6 7 20
0 11 -6 20 -13 20 -15z m1711 8 c13 -16 12 -17 -3 -4 -17 13 -22 21 -14 21 2
0 10 -8 17 -17z m16 -45 c-3 -8 -6 -5 -6 6 -1 11 2 17 5 13 3 -3 4 -12 1 -19z
m-92 -16 c-3 -3 -11 0 -18 7 -9 10 -8 11 6 5 10 -3 15 -9 12 -12z m-1582 -20
c15 -17 15 -18 -3 -19 -11 -1 -22 2 -25 8 -4 5 2 6 12 2 16 -6 16 -5 4 10 -18
23 -8 22 12 -1z m1667 8 c0 -5 -4 -10 -10 -10 -5 0 -10 5 -10 10 0 6 5 10 10
10 6 0 10 -4 10 -10z m-83 -33 c0 -8 -6 -14 -14 -14 -9 0 -10 4 -2 14 6 7 12
13 14 13 1 0 2 -6 2 -13z m183 -9 c0 -5 -7 -7 -15 -4 -9 3 -18 -1 -21 -9 -4
-8 -10 -12 -15 -9 -5 3 1 14 13 24 23 18 38 18 38 -2z m-1735 2 c-3 -5 -12
-10 -18 -10 -7 0 -6 4 3 10 19 12 23 12 15 0z m1549 -34 c-3 -8 -13 -17 -22
-21 -13 -5 -13 -2 3 15 21 24 26 25 19 6z m17 -19 c-10 -9 -11 -8 -5 6 3 10 9
15 12 12 3 -3 0 -11 -7 -18z m-86 -7 c-3 -5 -12 -10 -18 -10 -7 0 -6 4 3 10
19 12 23 12 15 0z m-1435 -25 c11 -13 10 -14 -4 -9 -9 3 -16 10 -16 15 0 13 6
11 20 -6z m1477 -7 c-3 -8 -6 -5 -6 6 -1 11 2 17 5 13 3 -3 4 -12 1 -19z
m-1391 -33 c1 -8 -1 -17 -5 -19 -4 -3 -7 6 -7 19 0 25 8 25 12 0z m1324 -1 c0
-9 5 -12 13 -8 6 4 8 3 4 -1 -15 -17 -32 -12 -32 10 0 13 3 21 8 18 4 -2 7
-11 7 -19z m-80 -28 c0 -3 -4 -8 -10 -11 -5 -3 -10 -1 -10 4 0 6 5 11 10 11 6
0 10 -2 10 -4z m230 -2 c0 -8 -19 -13 -24 -6 -3 5 1 9 9 9 8 0 15 -2 15 -3z
m-191 -36 c-12 -23 -21 -24 -12 -1 5 12 3 14 -7 8 -8 -5 -11 -4 -7 2 3 5 13
10 21 10 11 0 13 -5 5 -19z m-1304 -7 c-3 -6 -11 -11 -16 -11 -5 0 -4 6 3 14
14 16 24 13 13 -3z m53 11 c15 12 16 11 3 -4 -14 -19 -32 -15 -30 5 0 8 2 8 6
-1 4 -10 8 -10 21 0z m1412 0 c0 -5 -7 -9 -15 -9 -8 0 -12 4 -9 9 3 4 9 8 15
8 5 0 9 -4 9 -8z m-286 -18 c3 -8 2 -12 -4 -9 -6 3 -10 10 -10 16 0 14 7 11
14 -7z m-1081 -40 c-3 -8 -7 -14 -10 -14 -3 0 -3 6 0 14 3 7 0 20 -6 27 -10
11 -9 11 5 0 9 -7 14 -19 11 -27z m1183 24 c4 -6 3 -8 -4 -4 -14 9 -21 -15
-10 -36 14 -28 4 -21 -22 15 -13 17 -17 26 -8 19 13 -10 17 -10 22 3 7 18 12
19 22 3z m-1056 -2 c0 -2 -8 -10 -17 -17 -16 -13 -17 -12 -4 4 13 16 21 21 21
13z m-48 -51 c3 3 11 -1 17 -9 8 -10 9 -16 1 -21 -6 -4 -10 -3 -9 2 3 18 -2
27 -9 16 -5 -9 -12 -6 -21 10 -13 19 -12 21 1 10 8 -7 17 -11 20 -8z m-34 -20
c-3 -3 -9 2 -12 12 -6 14 -5 15 5 6 7 -7 10 -15 7 -18z m116 -3 c3 -5 -1 -9
-9 -9 -8 0 -12 4 -9 9 3 4 7 8 9 8 2 0 6 -4 9 -8z m1072 -4 c4 -7 3 -8 -5 -4
-6 4 -14 1 -17 -7 -2 -7 -12 -14 -20 -14 -12 0 -9 5 7 18 29 22 26 22 35 7z
m-1106 -2 c0 -2 -8 -10 -17 -17 -16 -13 -17 -12 -4 4 13 16 21 21 21 13z m76
-14 c-3 -3 0 -12 6 -21 10 -13 10 -14 -2 -4 -16 15 -23 46 -8 37 5 -3 7 -9 4
-12z m869 -11 c-6 -5 -25 10 -25 20 0 5 6 4 14 -3 8 -7 12 -15 11 -17z m-745
13 c0 -8 -19 -13 -24 -6 -3 5 1 9 9 9 8 0 15 -2 15 -3z m597 -31 c0 -9 -4 -10
-14 -2 -7 6 -13 12 -13 14 0 1 6 2 13 2 8 0 14 -6 14 -14z m38 -1 c-3 -3 -11
0 -18 7 -9 10 -8 11 6 5 10 -3 15 -9 12 -12z m200 -12 c-6 -34 -15 -41 -34
-30 -10 5 -22 6 -27 2 -5 -4 -2 1 5 11 11 14 16 15 29 5 11 -9 14 -9 9 -1 -4
6 -3 14 3 18 6 4 7 11 4 17 -4 6 -2 8 4 4 6 -3 9 -15 7 -26z m-1235 10 c0 -5
-4 -10 -10 -10 -5 0 -10 5 -10 10 0 6 5 10 10 10 6 0 10 -4 10 -10z m359 -16
c-7 -8 -6 -14 3 -17 7 -3 3 -5 -9 -3 -12 1 -26 6 -30 10 -5 4 -1 6 7 4 8 -1
14 2 13 8 -1 6 5 11 12 11 11 0 12 -4 4 -13z m55 0 c3 -8 2 -12 -4 -9 -6 3
-10 10 -10 16 0 14 7 11 14 -7z m106 12 c0 -3 -4 -8 -10 -11 -5 -3 -10 -1 -10
4 0 6 5 11 10 11 6 0 10 -2 10 -4z m371 -13 c13 -17 13 -17 -6 -3 -11 8 -22
16 -24 17 -2 2 0 3 6 3 6 0 17 -8 24 -17z m80 -16 c-10 -9 -11 -8 -5 6 3 10 9
15 12 12 3 -3 0 -11 -7 -18z m79 9 c-4 -4 -16 -4 -26 2 -16 9 -14 10 8 9 15
-1 23 -6 18 -11z m-277 -21 c-7 -21 -12 -19 -10 4 0 11 5 18 9 15 4 -3 5 -11
1 -19z m62 16 c3 -5 2 -12 -3 -15 -5 -3 -9 1 -9 9 0 17 3 19 12 6z m44 -30
c-2 -6 -10 2 -17 17 -11 25 -11 25 4 10 9 -9 15 -21 13 -27z m112 16 c-10 -9
-11 -8 -5 6 3 10 9 15 12 12 3 -3 0 -11 -7 -18z m-44 -10 c-2 -6 -9 -12 -15
-13 -7 -1 -8 0 -2 3 8 3 7 9 -1 19 -10 12 -9 13 5 8 9 -4 15 -11 13 -17z
m-403 5 c3 -5 -1 -9 -9 -9 -8 0 -12 4 -9 9 3 4 7 8 9 8 2 0 6 -4 9 -8z m70 -3
c3 -3 -4 -5 -14 -6 -11 -1 -20 2 -20 7 0 8 25 8 34 -1z m294 -14 c-3 -3 -9 2
-12 12 -6 14 -5 15 5 6 7 -7 10 -15 7 -18z m227 8 c-19 -13 -31 -11 -21 5 3 5
13 9 22 9 15 0 15 -2 -1 -14z m-732 -10 c-7 -2 -19 -2 -25 0 -7 3 -2 5 12 5
14 0 19 -2 13 -5z m44 1 c-3 -3 -12 -4 -19 -1 -8 3 -5 6 6 6 11 1 17 -2 13 -5z
m61 -19 c-3 -3 -9 2 -12 12 -6 14 -5 15 5 6 7 -7 10 -15 7 -18z m25 -10 c-7
-21 -12 -19 -10 4 0 11 5 18 9 15 4 -3 5 -11 1 -19z m80 5 c-3 -12 -8 -19 -11
-16 -5 6 5 36 12 36 2 0 2 -9 -1 -20z m84 -12 c-3 -8 -6 -5 -6 6 -1 11 2 17 5
13 3 -3 4 -12 1 -19z m83 7 c0 -1 -12 -2 -26 -2 -17 0 -22 2 -13 7 10 7 39 3
39 -5z m265 -24 c5 -1 2 -8 -7 -17 -17 -17 -38 -12 -38 11 0 7 8 12 18 10 9
-2 21 -4 27 -4z m-58 -15 c-5 -15 -24 -18 -24 -3 0 8 6 14 14 14 7 0 12 -5 10
-11z m-531 -28 c6 -4 21 -6 32 -3 21 4 21 3 6 -21 -21 -31 -26 -30 -52 5 -19
27 -13 35 14 19z m112 -1 c1 -4 0 -6 -1 -4 -2 1 -10 -3 -18 -10 -12 -10 -15
-8 -15 6 0 16 28 23 34 8z m316 5 c3 -5 -1 -9 -9 -9 -8 0 -12 4 -9 9 3 4 7 8
9 8 2 0 6 -4 9 -8z"/>
<path d="M1179 2354 c18 -25 20 -25 25 3 3 14 -2 19 -19 19 -22 0 -22 -1 -6
-22z"/>
<path d="M1094 2338 c-3 -5 -14 -6 -24 -3 -10 3 -21 1 -25 -5 -4 -6 -13 -9
-20 -6 -7 2 -16 -2 -19 -10 -4 -11 -10 -12 -25 -5 -14 8 -22 7 -31 -4 -7 -8
-10 -16 -6 -16 3 -1 10 -2 15 -3 5 0 13 -4 17 -8 14 -15 35 -8 32 10 -2 11 4
17 17 18 11 1 23 2 28 4 4 1 12 4 17 5 6 1 12 4 15 5 6 3 22 7 35 9 6 0 10 5
10 9 0 11 -29 11 -36 0z m-113 -45 c12 -16 12 -17 -2 -6 -9 7 -20 9 -24 5 -5
-4 -5 -1 -1 6 9 16 11 15 27 -5z"/>
<path d="M1555 2350 c-3 -6 1 -7 9 -4 18 7 21 14 7 14 -6 0 -13 -4 -16 -10z"/>
<path d="M429 1925 c-3 -37 -19 -75 -19 -46 0 7 -5 9 -11 5 -8 -5 -8 -9 1 -14
15 -9 60 0 60 12 0 6 -7 7 -16 4 -13 -5 -14 -3 -6 7 7 8 7 18 2 27 -6 8 -10
11 -11 5z"/>
<path d="M355 1818 c-16 -16 -25 -28 -20 -27 6 1 12 1 15 -1 3 -1 17 -3 32 -5
22 -3 26 0 23 16 -9 44 -19 48 -50 17z m39 -4 c3 -8 2 -12 -3 -9 -5 3 -12 1
-16 -5 -4 -6 -11 -8 -16 -4 -5 3 -7 10 -3 15 3 5 10 7 15 4 5 -4 9 -1 9 4 0
16 7 13 14 -5z"/>
<path d="M2220 1766 c0 -3 9 -10 20 -16 11 -6 20 -8 20 -6 0 3 -9 10 -20 16
-11 6 -20 8 -20 6z"/>
<path d="M2300 1655 c-7 -9 -11 -17 -9 -20 3 -2 10 5 17 15 14 24 10 26 -8 5z"/>
<path d="M2270 1606 c0 -4 7 -14 15 -23 8 -8 12 -19 9 -25 -4 -7 -2 -8 5 -4 6
4 9 12 6 17 -4 5 -4 9 -1 9 3 0 10 -9 16 -21 8 -15 8 -24 0 -34 -7 -8 -7 -15
-1 -19 5 -4 12 -2 16 4 3 5 3 10 -1 10 -4 0 1 9 10 19 13 14 14 21 5 27 -8 4
-10 3 -5 -4 4 -7 3 -12 -2 -12 -5 0 -15 14 -23 32 -7 17 -15 26 -17 19 -3 -9
-7 -9 -18 0 -8 6 -14 8 -14 5z"/>
<path d="M2320 1455 c-10 -13 -9 -19 6 -36 18 -20 18 -21 0 -34 -10 -8 -16
-19 -14 -26 5 -14 41 39 41 60 0 55 -10 64 -33 36z m27 -30 c0 -8 -4 -12 -9
-9 -5 3 -6 10 -3 15 9 13 12 11 12 -6z"/>
<path d="M2347 1359 c7 -7 15 -10 18 -7 3 3 -2 9 -12 12 -14 6 -15 5 -6 -5z"/>
<path d="M2326 1321 c-4 -5 -2 -12 3 -15 5 -4 12 -2 15 3 4 5 2 12 -3 15 -5 4
-12 2 -15 -3z"/>
<path d="M2315 1252 c-3 -3 1 -12 8 -20 9 -12 9 -16 0 -19 -7 -3 -13 -8 -13
-12 0 -12 40 -8 41 4 0 6 5 16 11 23 6 7 8 15 4 19 -8 8 -44 12 -51 5z m38
-10 c4 9 6 9 6 1 2 -20 -16 -24 -30 -5 -13 15 -12 16 3 4 13 -10 17 -10 21 0z"/>
<path d="M2333 1131 c-13 -11 -18 -22 -13 -31 6 -9 10 -7 15 9 3 12 10 19 15
16 5 -3 11 -1 14 4 12 18 -9 19 -31 2z"/>
<path d="M2319 1067 c-1 -4 -2 -10 -3 -14 -1 -5 -6 -15 -11 -23 -11 -18 -16
-45 -7 -35 4 4 7 12 7 18 0 7 7 12 16 11 9 -1 15 6 14 17 -1 19 -14 38 -16 26z"/>
<path d="M2281 971 c-8 -5 -11 -13 -7 -19 3 -5 -1 -15 -9 -22 -12 -10 -13 -16
-4 -26 8 -10 8 -14 0 -15 -26 -3 -30 -4 -38 -13 -5 -5 2 -6 17 -2 14 4 31 8
38 8 9 1 9 5 2 12 -7 7 -2 18 15 36 21 22 23 29 13 38 -8 6 -19 7 -27 3z m23
-10 c3 -4 -7 -19 -22 -32 -25 -22 -25 -22 -8 -1 11 12 16 22 12 22 -4 0 -4 5
-1 10 8 12 12 13 19 1z"/>
<path d="M2227 854 c-10 -11 3 -24 23 -24 10 0 22 5 26 12 4 6 3 8 -4 4 -6 -3
-13 -2 -17 4 -7 11 -19 13 -28 4z"/>
<path d="M246 1502 c-3 -6 -1 -14 4 -17 8 -5 5 -14 -7 -28 -10 -11 -12 -17 -5
-13 6 4 12 2 12 -3 0 -6 -6 -11 -12 -11 -10 0 -9 -3 1 -9 11 -7 11 -9 0 -13
-10 -3 -10 -6 -1 -12 7 -4 12 -2 12 3 0 21 3 26 21 39 24 16 24 24 1 53 -12
14 -21 18 -26 11z m28 -53 c-3 -5 -10 -7 -15 -3 -5 3 -7 10 -3 15 3 5 10 7 15
3 5 -3 7 -10 3 -15z"/>
<path d="M243 1355 c0 -8 4 -12 9 -9 4 3 8 0 8 -5 0 -10 -22 -16 -45 -11 -5 1
-1 -8 9 -19 10 -11 25 -17 33 -14 10 4 11 8 3 13 -8 5 -6 11 5 20 8 7 15 17
15 23 0 6 -3 7 -7 4 -3 -4 -11 -2 -18 3 -8 7 -12 5 -12 -5z"/>
<path d="M234 1246 c-3 -9 -11 -13 -18 -9 -6 3 -7 2 -3 -3 5 -5 13 -10 18 -10
22 -3 23 -5 9 -14 -8 -5 -11 -12 -7 -16 10 -10 17 -1 23 29 5 29 -13 47 -22
23z"/>
<path d="M262 1057 c-14 -17 -11 -35 13 -72 11 -16 20 -36 20 -45 1 -8 8 -28
16 -44 13 -23 17 -25 22 -13 4 10 -1 21 -11 27 -14 9 -14 10 6 5 13 -4 22 -2
22 5 0 6 -4 8 -10 5 -10 -6 -14 7 -11 33 2 11 -11 16 -31 13 -5 0 -8 4 -8 10
0 6 9 8 20 4 23 -7 26 5 8 24 -11 10 -9 15 5 26 18 13 18 14 -2 25 -16 8 -21
8 -21 -1 0 -9 -3 -9 -14 0 -10 8 -16 8 -24 -2z m41 -17 c3 6 4 5 3 -2 -2 -7
-8 -13 -13 -13 -6 0 -15 -3 -19 -7 -4 -5 -2 -8 4 -8 7 0 12 -5 12 -11 0 -8 -4
-8 -14 0 -7 6 -12 21 -11 34 4 33 4 34 19 14 9 -11 16 -14 19 -7z m13 -95 c1
-8 -1 -17 -5 -19 -4 -3 -7 6 -7 19 0 25 8 25 12 0z"/>
<path d="M370 849 c0 -9 10 -21 23 -27 17 -8 18 -11 5 -11 -9 -1 -23 8 -31 20
-9 12 -18 16 -21 10 -4 -5 3 -15 14 -21 11 -6 18 -15 15 -19 -2 -5 4 -20 15
-34 13 -16 16 -28 10 -32 -6 -4 2 -21 19 -42 17 -20 27 -41 24 -46 -3 -6 -2
-7 4 -4 6 4 21 -5 33 -18 13 -14 20 -25 16 -25 -5 0 -3 -7 4 -15 15 -18 32 -7
37 24 2 13 -3 18 -15 17 -10 0 -17 7 -18 19 -2 40 -4 46 -14 40 -8 -5 -8 -11
-1 -19 8 -9 6 -12 -9 -11 -28 2 -46 20 -30 30 8 5 4 15 -15 31 -17 15 -22 24
-14 24 10 1 8 4 -4 11 -17 10 -17 12 -2 29 15 17 14 20 -14 52 -21 22 -31 28
-31 17z m40 -58 c0 -6 -4 -12 -8 -15 -5 -3 -9 1 -9 9 0 8 4 15 9 15 4 0 8 -4
8 -9z m34 -100 c-3 -3 -15 6 -27 18 l-22 24 27 -19 c14 -10 24 -21 22 -23z
m82 -99 c-6 -5 -17 -3 -13 2 1 3 -9 17 -23 33 l-25 28 32 -29 c18 -16 31 -31
29 -34z"/>
<path d="M550 566 c0 -2 7 -7 16 -10 8 -3 12 -2 9 4 -6 10 -25 14 -25 6z"/>
<path d="M630 532 c0 -5 -15 -8 -33 -7 -19 1 -34 -4 -34 -10 0 -6 10 -11 21
-10 12 1 26 -7 33 -19 7 -12 12 -15 13 -9 0 7 15 -3 33 -23 31 -34 34 -35 47
-18 8 10 10 15 4 11 -7 -4 -17 0 -24 8 -7 8 -17 12 -23 8 -6 -3 -7 -1 -3 5 4
6 14 8 24 5 15 -6 15 -5 3 11 -14 16 -16 16 -27 2 -10 -15 -12 -15 -18 -1 -3
8 -3 21 0 29 3 8 1 17 -5 21 -6 3 -11 2 -11 -3z m10 -18 c0 -8 -19 -13 -24 -6
-3 5 1 9 9 9 8 0 15 -2 15 -3z m51 -71 c13 -16 12 -17 -3 -4 -10 7 -18 15 -18
17 0 8 8 3 21 -13z"/>
<path d="M1280 2440 c18 -12 30 -13 30 -2 0 4 -10 9 -22 9 -18 2 -20 0 -8 -7z"/>
<path d="M1440 2435 c-11 -13 -10 -14 5 -9 14 6 16 4 10 -6 -5 -8 -4 -11 3 -6
6 4 9 13 5 21 -7 19 -8 19 -23 0z"/>
<path d="M1060 2420 c8 -5 22 -9 30 -9 10 0 8 3 -5 9 -27 12 -43 12 -25 0z"/>
<path d="M1632 2420 c2 -9 -3 -14 -12 -12 -8 2 -11 0 -7 -4 13 -14 35 -12 33
2 -1 7 -6 17 -10 21 -4 4 -6 1 -4 -7z"/>
<path d="M1713 2405 c0 -8 4 -12 9 -9 5 3 6 10 3 15 -9 13 -12 11 -12 -6z"/>
<path d="M997 2395 c-16 -11 -16 -13 -2 -19 9 -3 14 -2 10 3 -3 5 1 11 7 14 7
2 11 7 8 10 -3 3 -13 0 -23 -8z"/>
<path d="M1510 2388 c0 -4 6 -8 14 -8 8 0 17 4 20 8 2 4 -4 8 -15 8 -10 0 -19
-4 -19 -8z"/>
<path d="M900 2371 c0 -7 -4 -9 -10 -6 -6 4 -7 -1 -3 -11 6 -15 7 -15 15 1 6
9 7 19 4 22 -3 4 -6 1 -6 -6z"/>
<path d="M1715 2370 c-4 -6 -11 -8 -16 -5 -5 4 -9 1 -9 -4 0 -16 16 -13 30 4
7 8 10 15 7 15 -3 0 -9 -5 -12 -10z"/>
<path d="M755 2361 c-3 -5 -2 -12 3 -15 5 -3 9 1 9 9 0 17 -3 19 -12 6z"/>
<path d="M1270 2340 l13 -24 -29 18 c-16 10 -24 13 -17 6 6 -7 9 -19 6 -26 -4
-10 1 -13 18 -10 13 3 26 5 29 5 3 1 6 11 7 22 1 12 -1 19 -4 15 -3 -3 -13 0
-21 7 -13 11 -14 9 -2 -13z"/>
<path d="M1330 2339 c0 -15 18 -18 34 -6 16 12 15 13 -8 13 -14 0 -26 -3 -26
-7z"/>
<path d="M1467 2339 c7 -9 10 -19 6 -22 -3 -4 -1 -7 5 -7 7 0 12 5 12 12 0 6
6 4 13 -7 10 -13 16 -15 21 -6 4 6 13 8 19 4 7 -4 6 0 -2 10 -7 9 -23 15 -35
13 -11 -2 -28 2 -36 8 -13 9 -13 9 -3 -5z"/>
<path d="M1715 2339 c-4 -6 -5 -12 -2 -15 2 -3 7 2 10 11 7 17 1 20 -8 4z"/>
<path d="M1812 2338 c2 -7 -6 -13 -18 -13 -12 0 -31 -9 -43 -19 -22 -20 -30
-9 -9 12 18 18 1 14 -23 -5 -22 -19 -48 -60 -31 -49 5 3 12 -1 16 -9 3 -8 11
-15 18 -15 8 0 9 3 3 8 -6 4 1 19 19 37 16 17 26 23 23 13 -4 -12 -2 -15 9
-11 11 4 12 8 3 20 -11 12 -8 13 13 8 18 -5 27 -2 31 9 3 8 2 18 -4 21 -5 4
-8 1 -7 -7z m-82 -61 c0 -7 -4 -6 -10 3 -8 12 -10 12 -10 1 0 -8 -3 -12 -6 -8
-9 9 6 28 17 22 5 -4 9 -12 9 -18z"/>
<path d="M753 2310 c-1 -11 2 -20 7 -20 4 0 7 7 6 15 -3 23 -12 26 -13 5z"/>
<path d="M1890 2300 c0 -5 5 -10 11 -10 5 0 7 5 4 10 -3 6 -8 10 -11 10 -2 0
-4 -4 -4 -10z"/>
<path d="M1634 2288 c-11 -17 6 -22 22 -7 13 14 13 16 -1 16 -9 0 -18 -4 -21
-9z"/>
<path d="M664 2279 c-4 -7 -3 -9 4 -5 5 3 13 0 15 -6 4 -9 6 -10 6 -1 1 17
-16 25 -25 12z"/>
<path d="M1870 2280 c0 -5 5 -10 11 -10 5 0 7 5 4 10 -3 6 -8 10 -11 10 -2 0
-4 -4 -4 -10z"/>
<path d="M715 2271 c-3 -5 0 -13 6 -17 7 -4 9 -3 5 4 -3 5 0 13 6 15 9 4 10 6
1 6 -6 1 -14 -3 -18 -8z"/>
<path d="M1921 2256 c-9 -10 -9 -16 -1 -21 6 -4 14 -4 17 -1 4 3 1 6 -7 6 -10
0 -10 3 0 15 7 8 10 15 7 15 -2 0 -10 -6 -16 -14z"/>
<path d="M654 2240 c0 -10 4 -16 9 -13 4 2 14 -1 22 -7 8 -7 15 -9 15 -4 0 5
-11 16 -23 25 -21 16 -23 16 -23 -1z"/>
<path d="M600 2246 c0 -2 8 -10 18 -17 15 -13 16 -12 3 4 -13 16 -21 21 -21
13z"/>
<path d="M826 2241 c-4 -5 -2 -12 3 -15 5 -4 12 -2 15 3 4 5 2 12 -3 15 -5 4
-12 2 -15 -3z"/>
<path d="M1956 2234 c-8 -20 -8 -24 2 -24 4 0 8 9 9 20 2 24 -3 26 -11 4z"/>
<path d="M575 2220 c-3 -5 -1 -10 4 -10 6 0 11 5 11 10 0 6 -2 10 -4 10 -3 0
-8 -4 -11 -10z"/>
<path d="M736 2201 c-4 -5 -2 -12 3 -15 5 -4 12 -2 15 3 4 5 2 12 -3 15 -5 4
-12 2 -15 -3z"/>
<path d="M1992 2190 c7 -10 14 -18 15 -16 6 6 -9 36 -18 36 -5 0 -4 -9 3 -20z"/>
<path d="M2075 2171 c-3 -5 -18 -7 -32 -5 -15 3 -25 3 -22 -1 14 -13 48 -13
60 1 6 8 9 14 6 14 -3 0 -8 -4 -12 -9z"/>
<path d="M534 2154 c1 -8 6 -17 11 -21 4 -4 5 -3 1 4 -9 16 13 28 27 14 6 -6
16 -11 21 -11 6 0 2 6 -9 14 -25 17 -53 17 -51 0z"/>
<path d="M636 2125 c-21 -21 -21 -21 12 -20 16 0 27 5 27 14 0 21 -20 24 -39
6z"/>
<path d="M2080 2134 c0 -6 7 -19 16 -30 14 -18 14 -18 3 6 -14 31 -19 36 -19
24z"/>
<path d="M473 2113 c0 -8 6 -9 19 -2 10 5 18 11 18 12 0 2 -8 3 -18 3 -10 0
-19 -6 -19 -13z"/>
<path d="M526 2117 c3 -10 9 -15 12 -12 3 3 0 11 -7 18 -10 9 -11 8 -5 -6z"/>
<path d="M1911 2117 c-9 -12 -8 -16 3 -20 19 -7 27 4 17 21 -6 10 -10 10 -20
-1z"/>
<path d="M1960 2085 c-9 -10 -9 -15 -1 -15 6 0 11 5 11 11 0 5 5 7 12 3 7 -4
8 -3 4 4 -9 15 -11 15 -26 -3z"/>
<path d="M2020 2056 c8 -10 15 -26 15 -35 0 -9 6 -15 13 -13 6 1 12 -3 12 -10
0 -15 13 -1 16 17 1 8 -2 13 -6 10 -5 -3 -12 0 -17 7 -4 7 -17 20 -28 28 -19
14 -19 14 -5 -4z"/>
<path d="M416 2033 c-4 -11 -1 -11 14 -3 24 13 25 17 5 17 -8 0 -16 -6 -19
-14z"/>
<path d="M2157 2043 c-4 -3 -7 -11 -7 -17 0 -6 5 -5 12 2 6 6 9 14 7 17 -3 3
-9 2 -12 -2z"/>
<path d="M525 2022 c-14 -10 -17 -32 -4 -32 5 0 7 -4 4 -10 -3 -5 0 -7 8 -4 7
2 13 14 12 24 -2 24 -8 31 -20 22z"/>
<path d="M2187 2013 c3 -7 6 -13 8 -13 2 0 5 6 8 13 3 8 -1 14 -8 14 -7 0 -11
-6 -8 -14z"/>
<path d="M385 1999 c-4 -6 -5 -12 -2 -15 2 -3 7 2 10 11 7 17 1 20 -8 4z"/>
<path d="M2216 1993 c-6 -14 -5 -15 5 -6 7 7 10 15 7 18 -3 3 -9 -2 -12 -12z"/>
<path d="M2190 1984 c0 -5 7 -18 15 -28 8 -11 15 -16 15 -10 0 5 -7 18 -15 28
-8 11 -15 16 -15 10z"/>
<path d="M2250 1981 c0 -6 4 -13 10 -16 6 -3 7 1 4 9 -7 18 -14 21 -14 7z"/>
<path d="M2105 1960 c-4 -6 -11 -7 -17 -4 -6 4 -6 -1 1 -14 6 -11 17 -22 26
-26 20 -7 19 4 -2 20 -17 13 -17 14 0 8 13 -5 16 -2 11 10 -7 19 -11 20 -19 6z"/>
<path d="M2250 1920 c0 -5 5 -10 11 -10 5 0 7 5 4 10 -3 6 -8 10 -11 10 -2 0
-4 -4 -4 -10z"/>
<path d="M335 1910 c-3 -6 1 -7 9 -4 18 7 21 14 7 14 -6 0 -13 -4 -16 -10z"/>
<path d="M2187 1876 c-4 -10 -1 -13 9 -9 15 6 19 23 5 23 -5 0 -11 -7 -14 -14z"/>
<path d="M2299 1873 c-13 -16 -12 -17 4 -4 9 7 17 15 17 17 0 8 -8 3 -21 -13z"/>
<path d="M2315 1861 c-3 -5 -2 -12 3 -15 5 -3 9 1 9 9 0 17 -3 19 -12 6z"/>
<path d="M255 1820 c-4 -6 -1 -9 7 -8 8 2 12 -4 10 -14 -3 -22 4 -24 11 -4 7
18 -18 42 -28 26z"/>
<path d="M2200 1820 c-12 -7 -12 -11 -2 -20 6 -5 10 -7 7 -4 -3 4 0 13 6 21
13 15 10 16 -11 3z"/>
<path d="M2326 1818 c3 -5 10 -6 15 -3 13 9 11 12 -6 12 -8 0 -12 -4 -9 -9z"/>
<path d="M2300 1786 c0 -2 7 -7 16 -10 8 -3 12 -2 9 4 -6 10 -25 14 -25 6z"/>
<path d="M2394 1736 c1 -8 5 -18 8 -22 4 -3 5 1 4 10 -1 8 -5 18 -8 22 -4 3
-5 -1 -4 -10z"/>
<path d="M216 1718 c3 -5 10 -6 15 -3 13 9 11 12 -6 12 -8 0 -12 -4 -9 -9z"/>
<path d="M250 1719 c0 -5 5 -7 10 -4 10 6 14 -7 11 -32 -1 -7 5 -13 14 -13 19
0 19 10 -1 38 -16 23 -34 29 -34 11z"/>
<path d="M2345 1720 c-3 -5 -1 -10 5 -10 6 0 8 -6 4 -12 -4 -7 -3 -9 1 -5 12
10 15 37 5 37 -5 0 -12 -4 -15 -10z"/>
<path d="M217 1673 c-3 -5 6 -9 20 -10 19 -1 22 1 12 8 -17 11 -26 11 -32 2z"/>
<path d="M2350 1660 c0 -5 7 -7 15 -4 8 4 15 8 15 10 0 2 -7 4 -15 4 -8 0 -15
-4 -15 -10z"/>
<path d="M194 1628 c0 -10 1 -18 3 -18 1 0 7 8 12 18 7 13 6 19 -2 19 -7 0
-13 -9 -13 -19z"/>
<path d="M2378 1618 c5 -5 16 -8 23 -6 8 3 3 7 -10 11 -17 4 -21 3 -13 -5z"/>
<path d="M205 1600 c-3 -6 1 -7 9 -4 18 7 21 14 7 14 -6 0 -13 -4 -16 -10z"/>
<path d="M277 1573 c-11 -11 -8 -21 9 -27 13 -5 14 -4 6 7 -7 8 -9 17 -5 20 3
4 4 7 1 7 -2 0 -8 -3 -11 -7z"/>
<path d="M173 1554 c0 -7 6 -10 14 -7 7 3 13 8 13 12 0 4 -6 8 -13 8 -8 0 -14
-6 -14 -13z"/>
<path d="M126 1538 c3 -5 10 -6 15 -3 13 9 11 12 -6 12 -8 0 -12 -4 -9 -9z"/>
<path d="M2381 1528 c-7 -11 -7 -18 -1 -18 5 0 10 5 10 11 0 5 4 8 9 5 5 -3
11 0 14 7 8 20 -19 16 -32 -5z"/>
<path d="M180 1526 c0 -2 7 -6 15 -10 8 -3 15 -1 15 4 0 6 -7 10 -15 10 -8 0
-15 -2 -15 -4z"/>
<path d="M2390 1476 c0 -2 9 -6 20 -9 11 -3 18 -1 14 4 -5 9 -34 13 -34 5z"/>
<path d="M165 1419 c-4 -6 -4 -13 -1 -16 3 -4 6 -1 6 6 0 7 5 9 12 5 7 -4 8
-3 4 4 -9 15 -13 15 -21 1z"/>
<path d="M2436 1393 c-6 -14 -5 -15 5 -6 7 7 10 15 7 18 -3 3 -9 -2 -12 -12z"/>
<path d="M2442 1358 c-15 -15 -15 -28 0 -28 6 0 8 3 5 7 -4 3 -2 12 4 20 14
16 7 17 -9 1z"/>
<path d="M146 1342 c-3 -4 4 -9 15 -9 23 -2 25 3 4 10 -8 4 -16 3 -19 -1z"/>
<path d="M2400 1320 c0 -5 5 -10 10 -10 6 0 10 5 10 10 0 6 -4 10 -10 10 -5 0
-10 -4 -10 -10z"/>
<path d="M155 1301 c-3 -6 0 -9 7 -6 9 4 14 -2 15 -16 1 -15 -1 -18 -11 -10
-9 8 -13 7 -13 -3 0 -8 7 -13 16 -11 9 1 16 12 16 25 0 25 -19 38 -30 21z"/>
<path d="M2430 1301 c0 -6 4 -12 8 -15 5 -3 9 1 9 9 0 8 -4 15 -9 15 -4 0 -8
-4 -8 -9z"/>
<path d="M2428 1223 c6 -3 10 -9 6 -14 -8 -14 2 -11 14 4 8 10 6 13 -11 14
-12 0 -16 -1 -9 -4z"/>
<path d="M2393 1198 c-2 -18 0 -20 7 -8 12 18 13 30 2 30 -4 0 -9 -10 -9 -22z"/>
<path d="M116 1195 c-9 -26 -7 -32 5 -12 6 10 9 21 6 23 -2 3 -7 -2 -11 -11z"/>
<path d="M150 1198 c0 -11 12 -10 30 2 12 7 10 9 -8 7 -12 0 -22 -5 -22 -9z"/>
<path d="M2430 1179 c0 -5 5 -7 10 -4 6 3 10 8 10 11 0 2 -4 4 -10 4 -5 0 -10
-5 -10 -11z"/>
<path d="M147 1159 c7 -7 15 -10 18 -7 3 3 -2 9 -12 12 -14 6 -15 5 -6 -5z"/>
<path d="M2433 1143 c4 -3 1 -13 -6 -22 -11 -14 -10 -14 5 -2 16 12 16 31 1
31 -4 0 -3 -3 0 -7z"/>
<path d="M2420 1066 c0 -2 8 -10 18 -17 15 -13 16 -12 3 4 -13 16 -21 21 -21
13z"/>
<path d="M197 1029 c7 -7 15 -10 18 -7 3 3 -2 9 -12 12 -14 6 -15 5 -6 -5z"/>
<path d="M2393 1005 c1 -12 -3 -19 -11 -17 -8 1 -11 -2 -7 -8 5 -8 13 -6 24 4
10 9 21 13 26 9 4 -5 5 -2 1 5 -4 7 -11 10 -16 7 -4 -3 -11 1 -14 7 -3 7 -4 4
-3 -7z"/>
<path d="M176 962 c-2 -4 -1 -14 4 -22 7 -11 9 -9 7 8 -1 24 -3 26 -11 14z"/>
<path d="M2387 939 c7 -7 15 -10 18 -7 3 3 -2 9 -12 12 -14 6 -15 5 -6 -5z"/>
<path d="M230 910 c-13 -8 -12 -10 3 -10 9 0 17 5 17 10 0 12 -1 12 -20 0z"/>
<path d="M2370 859 c0 -5 5 -7 10 -4 6 3 10 8 10 11 0 2 -4 4 -10 4 -5 0 -10
-5 -10 -11z"/>
<path d="M2314 833 c-10 -7 -13 -13 -7 -13 7 0 15 5 18 10 4 6 10 8 15 5 5 -3
11 -2 14 3 8 13 -19 10 -40 -5z"/>
<path d="M266 778 c4 -5 13 -7 21 -4 11 5 13 2 9 -9 -3 -10 -2 -13 5 -10 16
11 5 28 -19 30 -11 1 -19 -2 -16 -7z"/>
<path d="M2310 779 c0 -5 5 -7 10 -4 6 3 10 8 10 11 0 2 -4 4 -10 4 -5 0 -10
-5 -10 -11z"/>
<path d="M2287 767 c-3 -8 1 -14 8 -14 7 0 11 6 8 14 -3 7 -6 13 -8 13 -2 0
-5 -6 -8 -13z"/>
<path d="M2150 720 c0 -5 5 -10 11 -10 5 0 7 5 4 10 -3 6 -8 10 -11 10 -2 0
-4 -4 -4 -10z"/>
<path d="M2270 723 c0 -6 8 -17 18 -24 16 -13 16 -13 2 6 -8 11 -16 22 -17 24
-2 2 -3 0 -3 -6z"/>
<path d="M2123 685 c0 -8 4 -12 9 -9 5 3 6 10 3 15 -9 13 -12 11 -12 -6z"/>
<path d="M2230 650 c-9 -6 -10 -10 -3 -10 6 0 15 5 18 10 8 12 4 12 -15 0z"/>
<path d="M2066 626 c-16 -13 -25 -29 -22 -35 4 -6 12 -9 17 -5 5 3 7 10 4 15
-4 5 0 12 9 15 8 3 17 12 20 20 7 18 7 18 -28 -10z"/>
<path d="M2200 631 c0 -6 4 -13 10 -16 6 -3 7 1 4 9 -7 18 -14 21 -14 7z"/>
<path d="M373 615 c0 -8 4 -12 9 -9 5 3 6 10 3 15 -9 13 -12 11 -12 -6z"/>
<path d="M420 595 c0 -8 2 -15 4 -15 2 0 6 7 10 15 3 8 1 15 -4 15 -6 0 -10
-7 -10 -15z"/>
<path d="M2165 600 c-3 -6 1 -7 9 -4 18 7 21 14 7 14 -6 0 -13 -4 -16 -10z"/>
<path d="M2176 582 c-3 -5 1 -9 9 -9 8 0 12 4 9 9 -3 4 -7 8 -9 8 -2 0 -6 -4
-9 -8z"/>
<path d="M2150 557 c0 -2 6 -10 14 -16 11 -9 16 -9 22 1 4 7 4 10 -1 6 -4 -4
-14 -3 -22 3 -7 6 -13 9 -13 6z"/>
<path d="M1847 493 c-11 -11 -8 -20 7 -20 8 0 12 6 9 14 -6 15 -7 15 -16 6z"/>
<path d="M455 480 c3 -5 8 -10 11 -10 2 0 4 5 4 10 0 6 -5 10 -11 10 -5 0 -7
-4 -4 -10z"/>
<path d="M510 475 c0 -8 2 -15 4 -15 2 0 6 7 10 15 3 8 1 15 -4 15 -6 0 -10
-7 -10 -15z"/>
<path d="M2055 459 c-3 -4 2 -6 10 -5 21 3 28 13 10 13 -9 0 -18 -4 -20 -8z"/>
<path d="M525 440 c-3 -5 3 -7 12 -6 10 2 24 -4 31 -13 12 -14 12 -14 4 3 -10
21 -38 30 -47 16z"/>
<path d="M760 430 c-13 -8 -13 -10 0 -10 10 0 7 -5 -8 -16 -12 -8 -20 -20 -17
-25 6 -9 -7 -13 -35 -10 -13 2 -13 1 0 -8 12 -9 13 -11 1 -11 -8 0 -12 -3 -9
-6 4 -3 18 2 32 11 16 11 26 13 26 6 0 -6 -4 -11 -10 -11 -5 0 -10 -5 -10 -10
0 -6 10 -4 23 5 13 8 27 12 31 8 3 -4 -3 -12 -14 -18 -18 -9 -19 -13 -7 -29
11 -15 16 -16 22 -6 5 9 4 11 -3 6 -7 -4 -12 -1 -12 8 0 9 8 14 23 12 34 -3
46 -14 40 -35 -3 -10 0 -22 5 -25 6 -4 8 3 5 16 -4 20 -3 21 9 8 7 -8 22 -22
33 -30 18 -14 19 -13 8 1 -7 9 -9 20 -5 24 4 5 1 5 -7 0 -9 -5 -12 -3 -9 6 3
8 9 14 14 14 5 0 15 4 22 8 6 5 12 5 12 0 0 -4 5 0 11 10 14 25 2 40 -22 27
-15 -9 -21 -7 -25 5 -6 14 -8 13 -19 -2 -13 -17 -13 -17 -12 2 2 15 -3 19 -21
18 -16 -2 -21 1 -16 10 6 9 4 9 -8 -1 -23 -18 -44 9 -28 37 12 23 4 27 -20 11z
m59 -65 c14 -1 27 -6 27 -13 3 -23 4 -24 18 -13 10 9 16 8 26 -4 7 -9 10 -18
6 -22 -3 -3 -6 0 -6 7 0 9 -5 7 -14 -5 -14 -19 -15 -19 -35 -1 -11 10 -18 23
-15 27 3 5 0 9 -5 9 -6 0 -11 -4 -11 -10 0 -5 -5 -10 -11 -10 -5 0 -8 4 -5 9
3 5 -1 14 -9 21 -8 7 -15 9 -15 5 0 -4 -7 -2 -15 5 -8 7 -12 17 -9 22 3 5 15
1 26 -9 11 -10 32 -18 47 -18z"/>
<path d="M865 329 c-4 -6 -5 -12 -2 -15 2 -3 7 2 10 11 7 17 1 20 -8 4z"/>
<path d="M2035 430 c-3 -5 -3 -10 1 -10 4 0 -1 -9 -10 -19 -14 -15 -15 -21 -4
-27 7 -4 10 -4 6 1 -4 4 -2 15 4 23 12 13 20 42 13 42 -2 0 -7 -4 -10 -10z"/>
<path d="M1996 415 c-11 -8 -15 -15 -9 -15 6 0 16 7 23 15 16 19 11 19 -14 0z"/>
<path d="M1926 362 c-3 -5 1 -9 9 -9 8 0 15 4 15 9 0 4 -4 8 -9 8 -6 0 -12 -4
-15 -8z"/>
<path d="M1696 338 c3 -5 10 -6 15 -3 13 9 11 12 -6 12 -8 0 -12 -4 -9 -9z"/>
<path d="M1631 327 c-8 -10 -7 -14 2 -14 8 0 14 6 14 14 0 7 -1 13 -2 13 -2 0
-8 -6 -14 -13z"/>
<path d="M966 306 c2 -6 14 -13 26 -13 16 -2 18 1 10 9 -16 16 -42 19 -36 4z"/>
<path d="M1047 305 c-22 -22 -21 -28 2 -15 16 8 22 6 30 -7 6 -10 11 -13 11
-7 0 5 -6 18 -13 28 -13 17 -14 17 -30 1z"/>
<path d="M1554 308 c-4 -7 -3 -8 4 -4 7 4 12 2 12 -4 0 -6 5 -8 10 -5 11 7 4
25 -10 25 -5 0 -12 -5 -16 -12z"/>
<path d="M1836 307 c3 -10 9 -15 12 -12 3 3 0 11 -7 18 -10 9 -11 8 -5 -6z"/>
<path d="M1811 303 c3 -20 -2 -27 -11 -13 -8 13 -10 12 -10 -2 0 -22 13 -23
29 -4 8 10 9 16 1 21 -6 4 -10 3 -9 -2z"/>
<path d="M1866 298 c3 -5 10 -6 15 -3 13 9 11 12 -6 12 -8 0 -12 -4 -9 -9z"/>
<path d="M1481 286 c-9 -11 -7 -15 8 -19 26 -6 49 18 25 27 -21 8 -20 8 -33
-8z m29 -6 c0 -5 -2 -10 -4 -10 -3 0 -8 5 -11 10 -3 6 -1 10 4 10 6 0 11 -4
11 -10z"/>
<path d="M1150 280 c0 -5 5 -10 11 -10 5 0 7 5 4 10 -3 6 -8 10 -11 10 -2 0
-4 -4 -4 -10z"/>
<path d="M1230 282 c0 -9 12 -17 35 -22 6 -1 15 -6 22 -11 7 -7 14 -6 19 2 4
7 3 9 -3 6 -6 -4 -14 0 -17 9 -3 8 -11 12 -16 9 -6 -4 -17 -1 -25 5 -9 7 -15
8 -15 2z"/>
<path d="M1382 278 c-19 -19 -14 -33 6 -15 10 10 22 14 27 10 4 -5 5 -2 1 5
-9 15 -19 15 -34 0z"/>
<path d="M1430 280 c0 -5 5 -10 11 -10 5 0 7 5 4 10 -3 6 -8 10 -11 10 -2 0
-4 -4 -4 -10z"/>
<path d="M807 259 c7 -7 15 -10 18 -7 3 3 -2 9 -12 12 -14 6 -15 5 -6 -5z"/>
<path d="M1755 260 c-3 -5 -1 -10 4 -10 6 0 11 5 11 10 0 6 -2 10 -4 10 -3 0
-8 -4 -11 -10z"/>
<path d="M1713 240 c1 -21 10 -18 13 5 1 8 -2 15 -6 15 -5 0 -8 -9 -7 -20z"/>
<path d="M985 227 c-14 -11 -15 -16 -5 -22 8 -5 11 -4 6 3 -4 7 2 10 14 9 15
-1 20 -7 17 -19 -3 -10 -1 -15 4 -12 6 3 17 0 27 -8 9 -7 3 4 -12 25 -16 20
-29 37 -30 37 -1 0 -10 -6 -21 -13z"/>
<path d="M1521 204 c0 -11 3 -14 6 -6 3 7 2 16 -1 19 -3 4 -6 -2 -5 -13z"/>
<path d="M1065 200 c3 -5 8 -10 11 -10 2 0 4 5 4 10 0 6 -5 10 -11 10 -5 0 -7
-4 -4 -10z"/>
<path d="M1274 189 c-4 -7 -3 -9 4 -5 5 3 12 0 15 -6 2 -7 7 -10 11 -7 4 3 0
12 -8 18 -11 9 -16 9 -22 0z"/>
<path d="M935 180 c-3 -5 -1 -10 4 -10 6 0 11 5 11 10 0 6 -2 10 -4 10 -3 0
-8 -4 -11 -10z"/>
<path d="M1093 183 c4 -3 1 -13 -6 -22 -11 -14 -10 -14 5 -2 16 12 16 31 1 31
-4 0 -3 -3 0 -7z"/>
<path d="M1136 182 c-6 -10 -2 -40 7 -47 4 -3 5 -2 2 2 -3 3 1 13 8 21 10 13
9 14 -2 7 -11 -6 -13 -4 -8 8 7 18 2 23 -7 9z"/>
<path d="M1206 171 c-19 -7 -19 -8 0 -13 13 -3 21 0 21 8 0 8 -1 14 -1 13 -1
0 -10 -4 -20 -8z"/>
<path d="M1341 158 c-13 -21 -13 -22 2 -10 9 8 21 11 26 7 7 -3 8 0 5 9 -8 22
-17 20 -33 -6z"/>
<path d="M1390 169 c0 -5 5 -7 10 -4 6 3 10 8 10 11 0 2 -4 4 -10 4 -5 0 -10
-5 -10 -11z"/>
<path d="M1422 160 c-9 -15 -9 -21 1 -26 6 -4 9 -4 5 1 -4 4 -3 14 4 22 6 7 9
15 7 18 -3 2 -10 -4 -17 -15z"/>
<path d="M976 153 c-6 -14 -5 -15 5 -6 7 7 10 15 7 18 -3 3 -9 -2 -12 -12z"/>
<path d="M1254 159 c-4 -7 -3 -9 4 -5 5 3 12 0 15 -6 2 -7 7 -10 11 -7 4 3 0
12 -8 18 -11 9 -16 9 -22 0z"/>
<path d="M1453 145 c0 -8 4 -12 9 -9 5 3 6 10 3 15 -9 13 -12 11 -12 -6z"/>
<path d="M1187 139 c7 -7 15 -10 18 -7 3 3 -2 9 -12 12 -14 6 -15 5 -6 -5z"/>
</g>
</svg>
