<svg xmlns="http://www.w3.org/2000/svg" viewBox="0 0 71 68"><g id="Layer_2" data-name="Layer 2"><g id="Layer_1-2" data-name="Layer 1"><polygon points="19 0 19 18 28 32 34 32 34 9 27 0 19 0"/><polygon points="52 18 52 0 44 0 37 9 37 32 43 32 52 18"/><polygon points="19 50 19 68 27 68 34 59 34 36 28 36 19 50"/><polygon points="37 36 37 59 44 68 52 68 52 50 43 36 37 36"/><polygon points="6 36 0.06 45.89 0 48 17 48 23.97 37.54 24 36 6 36"/><polygon points="6 32 0.06 22.11 0 20 17 20 23.97 30.46 24 32 6 32"/><polygon points="65 36 70.94 45.89 71 48 54 48 47.03 37.54 47 36 65 36"/><polygon points="65 32 70.94 22.11 71 20 54 20 47.03 30.46 47 32 65 32"/></g></g></svg>