<svg xmlns="http://www.w3.org/2000/svg" viewBox="0 0 71 69"><g id="Layer_2" data-name="Layer 2"><g id="Layer_1-2" data-name="Layer 1"><polygon points="18 0 18 17 32 31 33 31 33 8 27 0 18 0"/><polygon points="53 17 53 0 44 0 38 8 38 31 39 31 53 17"/><polygon points="18 52 18 69 27 69 33 61 33 38 32 38 18 52"/><polygon points="38 38 38 61 44 69 53 69 53 52 39 38 38 38"/><polygon points="6 32 0.06 22.11 0 20 13 20 24.97 31.46 25 32 6 32"/><polygon points="65 32 70.94 22.11 71 20 58 20 46.03 31.46 46 32 65 32"/><polygon points="6 37 0.06 46.89 0 49 13 49 24.97 37.54 25 37 6 37"/><polygon points="65 37 70.94 46.89 71 49 58 49 46.03 37.54 46 37 65 37"/></g></g></svg>