<svg xmlns="http://www.w3.org/2000/svg" viewBox="0 0 72.63 72.24"><g id="Layer_2" data-name="Layer 2"><g id="Layer_1-2" data-name="Layer 1"><polygon points="25.24 35.64 35.41 45.98 46.08 35.91 36.13 25.36 25.24 35.64"/><path d="M72.63,28.07l-4.14-4.33-8.86,8.45-7.41-7.4,9.14-8.44-4.07-4.41L48,20.54l-7.11-7.11,9.3-8.88L46,.21l-9.4,9L27.44,0,23.19,4.24l9.09,9.09-7.42,7.09L15.94,11.5l-4.25,4.24,8.83,8.83L13.1,31.66,4.44,23,.19,27.24,8.76,35.8,0,44.17l4.14,4.34L13,40.05l7.42,7.42-9.15,8.42,4.07,4.42,9.33-8.59,7.09,7.09-9.29,8.88L26.61,72l9.4-9,9.18,9.19L49.44,68l-9.09-9.09,7.42-7.09,8.92,8.92,4.25-4.24-8.83-8.83,7.42-7.09,8.66,8.66L72.44,45l-8.57-8.56ZM35.27,54.44,16.82,35.7,36.27,16.78l18.4,19.27Z"/></g></g></svg>