<svg xmlns="http://www.w3.org/2000/svg" viewBox="0 0 72 72"><g id="Layer_2" data-name="Layer 2"><g id="Layer_1-2" data-name="Layer 1"><polygon points="62.58 33 65.88 30.34 62.12 25.66 53.02 33 43.24 33 63.58 12.66 59.34 8.42 39 28.76 39 18.98 46.34 9.88 41.66 6.12 39 9.42 39 0 33 0 33 9.42 30.34 6.12 25.66 9.88 33 18.98 33 28.76 12.66 8.42 8.42 12.66 28.76 33 18.05 33 8.87 25.66 5.13 30.34 8.45 33 0 33 0 39 8.45 39 5.13 41.66 8.87 46.34 18.05 39 28.76 39 8.42 59.34 12.66 63.58 33 43.24 33 53.95 25.66 63.13 30.34 66.87 33 63.55 33 72 39 72 39 63.55 41.66 66.87 46.34 63.13 39 53.95 39 43.24 59.34 63.58 63.58 59.34 43.24 39 53.02 39 62.12 46.34 65.88 41.66 62.58 39 72 39 72 33 62.58 33"/></g></g></svg>