<svg id="Layer_1" data-name="Layer 1" xmlns="http://www.w3.org/2000/svg" xmlns:xlink="http://www.w3.org/1999/xlink" viewBox="0 0 2349 2573"><defs><style>.cls-1{fill:#ffc988;filter:url(#blur);opacity:0.5;}</style><filter id="blur" x="0" y="0" name="blur"><feGaussianBlur stdDeviation="5" in="SourceGraphic"/></filter></defs><path class="cls-1" d="M1292.67,1393.67l-10.67-7-21.67,12.66-9.33-8.66,22-14.34-11-8.66L1239.33,1384l-19-20.33-9.66,7,16,15.66-11.67,10-17.33-20-8.67,8.34,17.67,19.33-15.34,15.33,7.34,6.67,15.33-12.33,11.67,10-20,15,9.66,7.66,20.34-12.66,16.66,12.66,12.34-5-18-16,14-8.33,17.66,14.33,12-6-21.33-17ZM1236.5,1416l-9.17-8,9-9,9.34,9.33Z"/><path class="cls-1" d="M1476,1404.67l-10.67-7-21.66,12.66-9.34-8.66,22-14.34-11-8.66L1422.67,1395l-19-20.33-9.67,7,16,15.66-11.67,10-17.33-20-8.67,8.34L1390,1415l-15.33,15.33L1382,1437l15.33-12.33,11.67,10-20,15,9.67,7.66,20.33-12.66,16.67,12.66,12.33-5-18-16,14-8.33,17.67,14.33,12-6-21.34-17ZM1419.83,1427l-9.16-8,9-9,9.33,9.33Z"/><path class="cls-1" d="M1365.33,1476.33l-10.66-7L1333,1482l-9.33-8.67,22-14.33-11-8.67L1312,1466.67l-19-20.34-9.67,7,16,15.67-11.66,10-17.34-20-8.66,8.33,17.66,19.34L1264,1502l7.33,6.67,15.34-12.34,11.66,10-20,15L1288,1529l20.33-12.67L1325,1529l12.33-5-18-16,14-8.33L1351,1514l12-6-21.33-17Zm-56.16,22.34-9.17-8,9-9,9.33,9.33Z"/><path class="cls-1" d="M1288.33,1569.67l-10.66-7L1256,1575.33l-9.33-8.66,22-14.34-11-8.66L1235,1560l-19-20.33-9.67,7,16,15.66-11.66,10-17.34-20-8.66,8.34,17.66,19.33L1187,1595.33l7.33,6.67,15.34-12.33,11.66,10-20,15,9.67,7.66,20.33-12.66,16.67,12.66,12.33-5-18-16,14-8.33,17.67,14.33,12-6-21.33-17ZM1232.17,1592l-9.17-8,9-9,9.33,9.33Z"/><path class="cls-1" d="M1377.17,1657.33l-10.67-7L1344.83,1663l-9.33-8.67,22-14.33-11-8.67-22.67,16.34-19-20.34-9.66,7,16,15.67-11.67,10-17.33-20-8.67,8.33,17.67,19.34L1275.83,1683l7.34,6.67,15.33-12.34,11.67,10-20,15,9.66,7.67,20.34-12.67,16.66,12.67,12.34-5-18-16,14-8.33,17.66,14.33,12-6-21.33-17ZM1321,1679.67l-9.17-8,9-9,9.34,9.33Z"/><path class="cls-1" d="M1579.67,1659.83l-10.67-7-21.67,12.67-9.33-8.67,22-14.33-11-8.67-22.67,16.34-19-20.34-9.66,7,16,15.67-11.67,10-17.33-20-8.67,8.33,17.67,19.34-15.34,15.33,7.34,6.67,15.33-12.34,11.67,10-20,15,9.66,7.67,20.34-12.67,16.66,12.67,12.34-5-18-16,14-8.33,17.66,14.33,12-6-21.33-17Zm-56.17,22.34-9.17-8,9-9,9.34,9.33Z"/><path class="cls-1" d="M1778.17,1657.33l-10.67-7L1745.83,1663l-9.33-8.67,22-14.33-11-8.67-22.67,16.34-19-20.34-9.66,7,16,15.67-11.67,10-17.33-20-8.67,8.33,17.67,19.34L1676.83,1683l7.34,6.67,15.33-12.34,11.67,10-20,15,9.66,7.67,20.34-12.67,16.66,12.67,12.34-5-18-16,14-8.33,17.66,14.33,12-6-21.33-17ZM1722,1679.67l-9.17-8,9-9,9.34,9.33Z"/><path class="cls-1" d="M1476,1750.67l-10.67-7-21.66,12.66-9.34-8.66,22-14.34-11-8.66L1422.67,1741l-19-20.33-9.67,7,16,15.66-11.67,10-17.33-20-8.67,8.34L1390,1761l-15.33,15.33L1382,1783l15.33-12.33,11.67,10-20,15,9.67,7.66,20.33-12.66,16.67,12.66,12.33-5-18-16,14-8.33,17.67,14.33,12-6-21.34-17ZM1419.83,1773l-9.16-8,9-9,9.33,9.33Z"/><path class="cls-1" d="M1288.33,1742.5l-10.66-7L1256,1748.17l-9.33-8.67,22-14.33-11-8.67L1235,1732.83l-19-20.33-9.67,7,16,15.67-11.66,10-17.34-20-8.66,8.33,17.66,19.33L1187,1768.17l7.33,6.66,15.34-12.33,11.66,10-20,15,9.67,7.67,20.33-12.67,16.67,12.67,12.33-5-18-16,14-8.34,17.67,14.34,12-6-21.33-17Zm-56.16,22.33-9.17-8,9-9,9.33,9.34Z"/><path class="cls-1" d="M1683.67,1745l-10.67-7-21.67,12.67L1642,1742l22-14.33-11-8.67-22.67,16.33-19-20.33-9.66,7,16,15.67-11.67,10-17.33-20L1580,1736l17.67,19.33-15.34,15.34,7.34,6.66L1605,1765l11.67,10-20,15,9.66,7.67,20.34-12.67,16.66,12.67,12.34-5-18-16,14-8.34,17.66,14.34,12-6-21.33-17Zm-56.17,22.33-9.17-8,9-9,9.34,9.34Z"/><path class="cls-1" d="M1783,1832.67l-10.67-7-21.66,12.66-9.34-8.66,22-14.34-11-8.66L1729.67,1823l-19-20.33-9.67,7,16,15.66-11.67,10-17.33-20-8.67,8.34L1697,1843l-15.33,15.33L1689,1865l15.33-12.33,11.67,10-20,15,9.67,7.66,20.33-12.66,16.67,12.66,12.33-5-18-16,14-8.33,17.67,14.33,12-6-21.34-17ZM1726.83,1855l-9.16-8,9-9,9.33,9.33Z"/><path class="cls-1" d="M1579.67,1835.17l-10.67-7-21.67,12.66-9.33-8.66,22-14.34-11-8.66-22.67,16.33-19-20.33-9.66,7,16,15.66-11.67,10-17.33-20-8.67,8.34,17.67,19.33-15.34,15.33,7.34,6.67,15.33-12.33,11.67,10-20,15,9.66,7.66,20.34-12.66,16.66,12.66,12.34-5-18-16,14-8.33,17.66,14.33,12-6-21.33-17Zm-56.17,22.33-9.17-8,9-9,9.34,9.33Z"/><path class="cls-1" d="M1370.17,1829.17l-10.67-7-21.67,12.66-9.33-8.66,22-14.34-11-8.66-22.67,16.33-19-20.33-9.66,7,16,15.66-11.67,10-17.33-20-8.67,8.34,17.67,19.33-15.34,15.33,7.34,6.67,15.33-12.33,11.67,10-20,15,9.66,7.66,20.34-12.66,16.66,12.66,12.34-5-18-16,14-8.33,17.66,14.33,12-6-21.33-17ZM1314,1851.5l-9.17-8,9-9,9.34,9.33Z"/><path class="cls-1" d="M1284,1910.5l-10.67-7-21.66,12.67-9.34-8.67,22-14.33-11-8.67-22.66,16.33-19-20.33-9.67,7,16,15.67-11.67,10-17.33-20-8.67,8.33,17.67,19.33-15.33,15.34,7.33,6.66,15.33-12.33,11.67,10-20,15,9.67,7.67L1227,1950.5l16.67,12.67,12.33-5-18-16,14-8.34,17.67,14.34,12-6-21.34-17Zm-56.17,22.33-9.16-8,9-9,9.33,9.34Z"/><path class="cls-1" d="M1462.5,1919l-10.67-7-21.66,12.67-9.34-8.67,22-14.33-11-8.67-22.66,16.33-19-20.33-9.67,7,16,15.67-11.67,10-17.33-20-8.67,8.33,17.67,19.33-15.33,15.34,7.33,6.66,15.33-12.33,11.67,10-20,15,9.67,7.67L1405.5,1959l16.67,12.67,12.33-5-18-16,14-8.34,17.67,14.34,12-6-21.34-17Zm-56.17,22.33-9.16-8,9-9,9.33,9.34Z"/><path class="cls-1" d="M1361,1993.17l-10.67-7-21.66,12.66-9.34-8.66,22-14.34-11-8.66-22.66,16.33-19-20.33-9.67,7,16,15.66-11.67,10-17.33-20-8.67,8.34L1275,2003.5l-15.33,15.33,7.33,6.67,15.33-12.33,11.67,10-20,15,9.67,7.66,20.33-12.66,16.67,12.66,12.33-5-18-16,14-8.33,17.67,14.33,12-6-21.34-17Zm-56.17,22.33-9.16-8,9-9,9.33,9.33Z"/><path class="cls-1" d="M1274.83,2066.33l-10.66-7L1242.5,2072l-9.33-8.67,22-14.33-11-8.67-22.67,16.34-19-20.34-9.67,7,16,15.67-11.66,10-17.34-20-8.66,8.33,17.66,19.34L1173.5,2092l7.33,6.67,15.34-12.34,11.66,10-20,15,9.67,7.67,20.33-12.67L1234.5,2119l12.33-5-18-16,14-8.33L1260.5,2104l12-6-21.33-17Zm-56.16,22.34-9.17-8,9-9,9.33,9.33Z"/><path class="cls-1" d="M1458.17,2068.83l-10.67-7-21.67,12.67-9.33-8.67,22-14.33-11-8.67-22.67,16.34-19-20.34-9.66,7,16,15.67-11.67,10-17.33-20-8.67,8.33,17.67,19.34-15.34,15.33,7.34,6.67,15.33-12.34,11.67,10-20,15,9.66,7.67,20.34-12.67,16.66,12.67,12.34-5-18-16,14-8.33,17.66,14.33,12-6-21.33-17ZM1402,2091.17l-9.17-8,9-9,9.34,9.33Z"/><path class="cls-1" d="M1688,2079.83l-10.67-7-21.66,12.67-9.34-8.67,22-14.33-11-8.67-22.66,16.34-19-20.34-9.67,7,16,15.67-11.67,10-17.33-20-8.67,8.33,17.67,19.34-15.33,15.33,7.33,6.67,15.33-12.34,11.67,10-20,15,9.67,7.67,20.33-12.67,16.67,12.67,12.33-5-18-16,14-8.33,17.67,14.33,12-6-21.34-17Zm-56.17,22.34-9.16-8,9-9,9.33,9.33Z"/><path class="cls-1" d="M1808.79,2004.17l-10.67-7-21.67,12.66-9.33-8.66,22-14.34-11-8.66-22.67,16.33-19-20.33-9.66,7,16,15.66-11.67,10-17.33-20-8.67,8.34,17.67,19.33-15.34,15.33,7.34,6.67,15.33-12.33,11.67,10-20,15,9.66,7.66,20.34-12.66,16.66,12.66,12.34-5-18-16,14-8.33,17.66,14.33,12-6-21.33-17Zm-56.17,22.33-9.17-8,9-9,9.34,9.33Z"/><path class="cls-1" d="M1688,1921.5l-10.67-7-21.66,12.67-9.34-8.67,22-14.33-11-8.67-22.66,16.33-19-20.33-9.67,7,16,15.67-11.67,10-17.33-20-8.67,8.33,17.67,19.33-15.33,15.34,7.33,6.66,15.33-12.33,11.67,10-20,15,9.67,7.67L1631,1961.5l16.67,12.67,12.33-5-18-16,14-8.34,17.67,14.34,12-6-21.34-17Zm-56.17,22.33-9.16-8,9-9,9.33,9.34Z"/><path class="cls-1" d="M1575.33,2004.17l-10.66-7L1543,2009.83l-9.33-8.66,22-14.34-11-8.66L1522,1994.5l-19-20.33-9.67,7,16,15.66-11.66,10-17.34-20-8.66,8.34,17.66,19.33L1474,2029.83l7.33,6.67,15.34-12.33,11.66,10-20,15,9.67,7.66,20.33-12.66,16.67,12.66,12.33-5-18-16,14-8.33,17.67,14.33,12-6-21.33-17Zm-56.16,22.33-9.17-8,9-9,9.33,9.33Z"/><path class="cls-1" d="M1888.06,2082.35l-10.66-7L1855.73,2088l-9.33-8.66,22-14.34-11-8.66-22.67,16.33-19-20.33-9.67,7,16,15.66-11.66,10-17.34-20-8.66,8.34,17.66,19.33L1786.73,2108l7.33,6.67,15.34-12.33,11.66,10-20,15,9.67,7.66,20.33-12.66,16.67,12.66,12.33-5-18-16,14-8.33,17.67,14.33,12-6-21.33-17Zm-56.16,22.33-9.17-8,9-9,9.33,9.33Z"/><path class="cls-1" d="M1471.67,1572.17l-10.67-7-21.67,12.66-9.33-8.66,22-14.34-11-8.66-22.67,16.33-19-20.33-9.66,7,16,15.66-11.67,10-17.33-20-8.67,8.34,17.67,19.33-15.34,15.33,7.34,6.67,15.33-12.33,11.67,10-20,15,9.66,7.66,20.34-12.66,16.66,12.66,12.34-5-18-16,14-8.33,17.66,14.33,12-6-21.33-17Zm-56.17,22.33-9.17-8,9-9,9.34,9.33Z"/><path class="cls-1" d="M1569.33,1484.5l-10.66-7L1537,1490.17l-9.33-8.67,22-14.33-11-8.67L1516,1474.83l-19-20.33-9.67,7,16,15.67-11.66,10-17.34-20-8.66,8.33,17.66,19.33L1468,1510.17l7.33,6.66,15.34-12.33,11.66,10-20,15,9.67,7.67,20.33-12.67,16.67,12.67,12.33-5-18-16,14-8.34,17.67,14.34,12-6-21.33-17Zm-56.16,22.33-9.17-8,9-9,9.33,9.34Z"/><path class="cls-1" d="M1674.5,1574.67l-10.67-7-21.66,12.66-9.34-8.66,22-14.34-11-8.66L1621.17,1565l-19-20.33-9.67,7,16,15.66-11.67,10-17.33-20-8.67,8.34L1588.5,1585l-15.33,15.33,7.33,6.67,15.33-12.33,11.67,10-20,15,9.67,7.66,20.33-12.66,16.67,12.66,12.33-5-18-16,14-8.33,17.67,14.33,12-6-21.34-17ZM1618.33,1597l-9.16-8,9-9,9.33,9.33Z"/><path class="cls-1" d="M1688,1404.67l-10.67-7-21.66,12.66-9.34-8.66,22-14.34-11-8.66L1634.67,1395l-19-20.33-9.67,7,16,15.66-11.67,10-17.33-20-8.67,8.34L1602,1415l-15.33,15.33L1594,1437l15.33-12.33,11.67,10-20,15,9.67,7.66,20.33-12.66,16.67,12.66,12.33-5-18-16,14-8.33,17.67,14.33,12-6-21.34-17ZM1631.83,1427l-9.16-8,9-9,9.33,9.33Z"/><path class="cls-1" d="M1876.07,1381l-11.5-5.54-19.81,15.39-10.39-7.36,19.93-17.1-12-7.15-20.32,19.17-21.51-17.67-8.66,8.21,17.91,13.43-10.25,11.45-19.81-17.56-7.5,9.4,20.05,16.85L1779,1419.7l8.15,5.65,13.58-14.24,12.88,8.38-17.86,17.5,10.59,6.33,18.49-15.22,18.19,10.37,11.57-6.58-19.94-13.5,12.78-10.09,19.4,11.89,11.11-7.52-23.38-14.06Zm-52.76,29.5-10.13-6.73,7.74-10.1,10.48,8Z"/><path class="cls-1" d="M1876.07,1558.23l-11.5-5.54-19.81,15.39-10.39-7.36,19.93-17.1-12-7.15-20.32,19.17L1800.42,1538l-8.66,8.21,17.91,13.43-10.25,11.45-19.81-17.56-7.5,9.4,20.05,16.85L1779,1597l8.15,5.65,13.58-14.24,12.88,8.38-17.86,17.5,10.59,6.33,18.49-15.22,18.19,10.37,11.57-6.58-19.94-13.5,12.78-10.09,19.4,11.89,11.11-7.52-23.38-14.06Zm-52.76,29.5-10.13-6.73,7.74-10.1,10.48,8Z"/><path class="cls-1" d="M1883,1727.53l-11.49-5.54-19.82,15.4-10.39-7.37,19.93-17.09-12-7.15-20.33,19.16-21.5-17.66-8.67,8.21,17.92,13.43-10.25,11.44-19.81-17.55-7.5,9.4,20,16.85-13.19,17.21,8.14,5.64,13.59-14.23,12.87,8.38-17.86,17.49,10.59,6.34,18.5-15.23,18.18,10.37,11.57-6.57L1841.5,1765l12.79-10.1,19.39,11.89,11.11-7.52-23.38-14ZM1830.2,1757l-10.14-6.73,7.74-10.1,10.48,8Z"/><path class="cls-1" d="M1887.28,1906.53l-11.49-5.54-19.82,15.4-10.39-7.37,19.93-17.09-12-7.15-20.33,19.16-21.5-17.66-8.66,8.21,17.91,13.43-10.25,11.44-19.81-17.55-7.5,9.4,20.05,16.85-13.19,17.21,8.15,5.64,13.58-14.23,12.88,8.38-17.86,17.49,10.59,6.34,18.49-15.23,18.19,10.37,11.57-6.57-20-13.5,12.79-10.1,19.39,11.89,11.11-7.52-23.37-14ZM1834.53,1936l-10.13-6.73,7.74-10.1,10.47,8Z"/><path class="cls-1" d="M1782.22,1467.37l-11.49-5.54-19.82,15.39-10.39-7.36,19.93-17.1-12-7.15-20.33,19.17-21.5-17.67-8.67,8.21,17.92,13.43-10.25,11.45-19.81-17.56-7.5,9.4,20,16.85-13.19,17.21,8.14,5.65,13.59-14.24,12.88,8.38-17.86,17.5,10.58,6.33,18.5-15.22,18.18,10.37,11.58-6.58-20-13.5,12.79-10.09,19.39,11.89,11.11-7.52L1760.68,1485Zm-52.75,29.5-10.14-6.73,7.75-10.1,10.47,8Z"/></svg>