<svg id="Layer_1" data-name="Layer 1" xmlns="http://www.w3.org/2000/svg" xmlns:xlink="http://www.w3.org/1999/xlink" viewBox="0 0 2927 1191"><defs><style>.cls-1{fill:#b3031d;filter:url(#blur_2_);opacity:0.5;}</style><filter id="blur_2_" x="0" y="0" name="blur_2_"><feGaussianBlur stdDeviation="3" in="SourceGraphic"/></filter></defs><path class="cls-1" d="M737.67,392H725l.67-4.33,8-1.67v-7.33H722.33l-.33-3.34h8.33V366H719l-1-6h10.67l-2.34-5.33-12,.66-1.66-11-7,1.67L707,357.33h-2.67L702,346h-6l1.67,11.67h-4.34L691,346l-5.33,1.67L688,358.33,684,360l-3.33-14-7,1.67,3.33,11L664.67,360l3.33,6.67,12.67-1.34,1.33,5-12.67,2,1.67,7.34h12.67l.66,3.33-11.66,2.33,2.66,6.67,9.34-2,1,4.67L675,396.33l2,9h12l4,9.67,5-1.67-2.67-11.66H699l2.17,11.66,6.5-1.33L706,401.33h4L713.33,412h6l-1.66-11.33h2.66l2,11.33,8.34-1.33L728,400l9.67-1.33Zm-43,1.67L689,367h19l8.67,23.67Z"/><path class="cls-1" d="M2105.21,302.61l-1.87,12.53-4.19-1.3-.46-8.16-7.25-1.09-1.68,11.21-3.35-.16,1.24-8.24-9.23-1.39-1.68,11.21-6.09.1,1.58-10.55-5.62,1.52-1.11,12-11.13,0,.61,7.17,11.41.36-.4,2.63-11.55.63-.89,5.94,11.79.08-.65,4.28-11.88.58.86,5.52,10.89-.73,1.06,4.21-14.34,1.22.61,7.17,11.37-1.67-.5,12.4,7.08-2.31.56-12.73,5.14-.57.1,12.82,7.5-.56,1.88-12.53,3.39-.17.58,11.89,7-1.65-.59-9.53,4.76-.3.07,10.8,9.2-.65,1.77-11.86,10.16-2.53-.91-5.19-11.94.91.55-3.63,11.86-.41-.36-6.63-10.8.07.6-3.95,11-1.72.89-5.93-11.46,0,.4-2.63,11.5-.3-.08-8.44-10.95,1.06.12-9.76Zm-4.72,42.77L2073.28,347l2.82-18.79,24.69-5.07Z"/></svg>