<svg id="Layer_1" data-name="Layer 1" xmlns="http://www.w3.org/2000/svg" xmlns:xlink="http://www.w3.org/1999/xlink" viewBox="0 0 1280 626"><defs><style>.cls-1{opacity:0.3;filter:url(#blur);}.cls-2{fill:#b3031d;}</style><filter id="blur" x="0" y="0" name="blur"><feGaussianBlur stdDeviation="5" in="SourceGraphic"/></filter></defs><g class="cls-1"><polygon class="cls-2" points="621.5 507.69 639.3 507.69 639.3 482.5 654.58 498.42 672.7 482.5 671.34 506.14 695 508.5 676.17 524.42 695 544.17 674.31 542.92 672.27 566.33 656 549.67 642.33 565.17 640 543.17 620.83 539.67 634.17 524.5 621.5 507.69"/></g><g class="cls-1"><polygon class="cls-2" points="713.5 507.69 731.3 507.69 731.3 482.5 746.58 498.42 764.7 482.5 763.34 506.14 787 508.5 768.17 524.42 787 544.17 766.31 542.92 764.27 566.33 748 549.67 734.33 565.17 732 543.17 712.83 539.67 726.17 524.5 713.5 507.69"/></g><g class="cls-1"><polygon class="cls-2" points="1048.72 498.45 1072.36 498.45 1072.36 465 1092.65 486.14 1116.72 465 1114.91 496.4 1146.33 499.53 1121.33 520.67 1146.33 546.89 1118.85 545.25 1116.14 576.33 1094.54 554.2 1076.39 574.78 1073.29 545.57 1047.83 540.92 1065.54 520.78 1048.72 498.45"/></g><g class="cls-1"><polygon class="cls-2" points="1043.72 392.45 1067.36 392.45 1067.36 359 1087.65 380.14 1111.72 359 1109.91 390.4 1141.33 393.53 1116.33 414.67 1141.33 440.89 1113.85 439.25 1111.14 470.33 1089.54 448.2 1071.39 468.78 1068.29 439.57 1042.83 434.92 1060.54 414.78 1043.72 392.45"/></g><g class="cls-1"><polygon class="cls-2" points="1142.16 390.47 1164.4 390.47 1164.4 359 1183.49 378.89 1206.14 359 1204.44 388.54 1234 391.49 1210.48 411.38 1234 436.05 1208.14 434.5 1205.6 463.75 1185.27 442.93 1168.19 462.29 1165.28 434.8 1141.33 430.43 1157.99 411.48 1142.16 390.47"/></g></svg>